<svg width="482" height="58" viewBox="0 0 482 58" fill="none" xmlns="http://www.w3.org/2000/svg">
<path d="M195.56 34.32C197.267 34.32 198.633 33.86 199.66 32.94C200.7 32.02 201.22 30.6333 201.22 28.78C201.22 26.9267 200.633 25.4533 199.46 24.36C198.3 23.2667 196.867 22.72 195.16 22.72C193.947 22.72 193.013 22.7467 192.36 22.8V34.18C193.16 34.2733 194.227 34.32 195.56 34.32ZM195.16 21.9C197.16 21.9 198.827 22.52 200.16 23.76C201.507 24.9867 202.18 26.66 202.18 28.78C202.18 30.9 201.56 32.4933 200.32 33.56C199.093 34.6267 197.507 35.16 195.56 35.16C194.213 35.16 192.827 35.0933 191.4 34.96V22.02C192.467 21.94 193.72 21.9 195.16 21.9ZM206.425 35V20.7H213.065V21.54H207.385V26.8H212.525V27.62H207.385V34.16H213.285V35H206.425ZM223.308 21.96C222.335 21.5467 221.368 21.34 220.408 21.34C218.462 21.34 217.488 22.06 217.488 23.5C217.488 24.1267 217.708 24.7133 218.148 25.26C218.588 25.7933 219.122 26.2733 219.748 26.7C220.375 27.1133 221.002 27.54 221.628 27.98C222.255 28.42 222.788 28.9467 223.228 29.56C223.668 30.1733 223.888 30.84 223.888 31.56C223.888 32.7733 223.482 33.6933 222.668 34.32C221.855 34.9333 220.728 35.24 219.288 35.24C217.862 35.24 216.642 34.8733 215.628 34.14L216.108 33.42C217.068 34.0467 218.122 34.36 219.268 34.36C220.415 34.36 221.295 34.1333 221.908 33.68C222.522 33.2133 222.828 32.5467 222.828 31.68C222.828 31.08 222.608 30.5133 222.168 29.98C221.728 29.4333 221.195 28.9467 220.568 28.52C219.942 28.08 219.315 27.6333 218.688 27.18C218.062 26.7267 217.528 26.1867 217.088 25.56C216.648 24.9333 216.428 24.26 216.428 23.54C216.428 22.5933 216.775 21.8467 217.468 21.3C218.175 20.74 219.122 20.46 220.308 20.46C221.508 20.46 222.622 20.7 223.648 21.18L223.308 21.96ZM234.826 35.24C232.746 35.24 230.959 34.5333 229.466 33.12C227.972 31.6933 227.226 29.94 227.226 27.86C227.226 25.7667 227.879 24.0133 229.186 22.6C230.492 21.1733 232.166 20.46 234.206 20.46C235.806 20.46 237.426 20.7267 239.066 21.26L238.806 22.06C237.206 21.58 235.672 21.34 234.206 21.34C232.459 21.34 231.032 21.9667 229.926 23.22C228.819 24.4733 228.266 26.0067 228.266 27.82C228.266 29.6333 228.906 31.18 230.186 32.46C231.479 33.7267 233.026 34.36 234.826 34.36C236.399 34.36 237.759 34.12 238.906 33.64L239.206 34.32C238.699 34.6133 238.032 34.84 237.206 35C236.392 35.16 235.599 35.24 234.826 35.24ZM252.608 33.62C251.688 34.7 250.288 35.24 248.408 35.24C246.528 35.24 245.121 34.6933 244.188 33.6C243.268 32.5067 242.808 31.0133 242.808 29.12V20.7H243.768V29.12C243.768 32.64 245.308 34.4 248.388 34.4C251.481 34.4 253.028 32.64 253.028 29.12V20.7H253.988V29.12C253.988 31.0267 253.528 32.5267 252.608 33.62ZM259.101 20.74C260.141 20.66 261.201 20.62 262.281 20.62C263.374 20.62 264.314 20.8867 265.101 21.42C265.901 21.9533 266.301 22.7267 266.301 23.74C266.301 24.5 266.088 25.2067 265.661 25.86C265.248 26.5133 264.748 27.0067 264.161 27.34C265.108 27.6333 265.901 28.14 266.541 28.86C267.181 29.58 267.501 30.3867 267.501 31.28C267.501 32.5333 267.101 33.4867 266.301 34.14C265.514 34.7933 264.428 35.12 263.041 35.12C261.668 35.12 260.354 35.0667 259.101 34.96V20.74ZM263.161 34.26C264.134 34.26 264.934 33.9933 265.561 33.46C266.188 32.9133 266.501 32.22 266.501 31.38C266.501 30.54 266.194 29.8133 265.581 29.2C264.981 28.5867 264.154 28.1667 263.101 27.94C262.608 27.8333 262.034 27.78 261.381 27.78C260.741 27.78 260.301 27.78 260.061 27.78V34.16C260.648 34.2267 261.681 34.26 263.161 34.26ZM265.341 23.72C265.341 22.9867 265.034 22.42 264.421 22.02C263.821 21.62 263.141 21.42 262.381 21.42C261.634 21.42 260.861 21.4467 260.061 21.5V26.96C260.234 26.96 260.561 26.96 261.041 26.96C261.521 26.96 262.228 27 263.161 27.08C263.761 26.76 264.274 26.3 264.701 25.7C265.128 25.1 265.341 24.44 265.341 23.72ZM271.679 35V20.76C272.946 20.6667 274.006 20.62 274.859 20.62C276.219 20.62 277.339 20.9733 278.219 21.68C279.099 22.3733 279.539 23.36 279.539 24.64C279.539 25.5067 279.286 26.3133 278.779 27.06C278.272 27.8067 277.706 28.4 277.079 28.84C277.572 29.52 278.179 30.3333 278.899 31.28C279.632 32.2133 280.106 32.8 280.319 33.04C281.132 33.9067 282.052 34.4 283.079 34.52L283.059 35.16C282.246 35.1467 281.586 35.0267 281.079 34.8C280.572 34.56 280.086 34.2 279.619 33.72C279.166 33.24 278.026 31.7467 276.199 29.24C274.892 29.24 273.706 29.2 272.639 29.12V35H271.679ZM275.619 28.44C276.206 28.44 276.832 28.0533 277.499 27.28C278.166 26.5067 278.499 25.6133 278.499 24.6C278.499 23.5733 278.152 22.8 277.459 22.28C276.779 21.7467 275.872 21.48 274.739 21.48C274.139 21.48 273.439 21.5067 272.639 21.56V28.34C273.706 28.4067 274.699 28.44 275.619 28.44ZM284.843 35V20.7H291.483V21.54H285.803V26.8H290.943V27.62H285.803V34.16H291.703V35H284.843Z" fill="black"/>
<rect x="0.5" y="0.5" width="481" height="57" rx="28.5" stroke="black"/>
</svg>
