<svg width="482" height="58" viewBox="0 0 482 58" fill="none" xmlns="http://www.w3.org/2000/svg">
<path d="M196.72 34.3C198.6 34.3 200.107 33.7933 201.24 32.78C202.387 31.7533 202.96 30.2133 202.96 28.16C202.96 26.1067 202.313 24.4733 201.02 23.26C199.74 22.0467 198.153 21.44 196.26 21.44C195.047 21.44 193.993 21.4733 193.1 21.54V34.14C193.967 34.2467 195.173 34.3 196.72 34.3ZM196.26 20.56C198.46 20.56 200.3 21.2467 201.78 22.62C203.26 23.98 204 25.8333 204 28.18C204 29.3667 203.807 30.42 203.42 31.34C203.047 32.2467 202.527 32.9733 201.86 33.52C200.487 34.6267 198.773 35.18 196.72 35.18C195.373 35.18 193.847 35.1067 192.14 34.96V20.7C193.5 20.6067 194.873 20.56 196.26 20.56ZM208.449 35V20.7H209.409V35H208.449ZM220.859 21.96C219.886 21.5467 218.919 21.34 217.959 21.34C216.012 21.34 215.039 22.06 215.039 23.5C215.039 24.1267 215.259 24.7133 215.699 25.26C216.139 25.7933 216.672 26.2733 217.299 26.7C217.926 27.1133 218.552 27.54 219.179 27.98C219.806 28.42 220.339 28.9467 220.779 29.56C221.219 30.1733 221.439 30.84 221.439 31.56C221.439 32.7733 221.032 33.6933 220.219 34.32C219.406 34.9333 218.279 35.24 216.839 35.24C215.412 35.24 214.192 34.8733 213.179 34.14L213.659 33.42C214.619 34.0467 215.672 34.36 216.819 34.36C217.966 34.36 218.846 34.1333 219.459 33.68C220.072 33.2133 220.379 32.5467 220.379 31.68C220.379 31.08 220.159 30.5133 219.719 29.98C219.279 29.4333 218.746 28.9467 218.119 28.52C217.492 28.08 216.866 27.6333 216.239 27.18C215.612 26.7267 215.079 26.1867 214.639 25.56C214.199 24.9333 213.979 24.26 213.979 23.54C213.979 22.5933 214.326 21.8467 215.019 21.3C215.726 20.74 216.672 20.46 217.859 20.46C219.059 20.46 220.172 20.7 221.199 21.18L220.859 21.96ZM232.377 35.24C230.297 35.24 228.51 34.5333 227.017 33.12C225.523 31.6933 224.777 29.94 224.777 27.86C224.777 25.7667 225.43 24.0133 226.737 22.6C228.043 21.1733 229.717 20.46 231.757 20.46C233.357 20.46 234.977 20.7267 236.617 21.26L236.357 22.06C234.757 21.58 233.223 21.34 231.757 21.34C230.01 21.34 228.583 21.9667 227.477 23.22C226.37 24.4733 225.817 26.0067 225.817 27.82C225.817 29.6333 226.457 31.18 227.737 32.46C229.03 33.7267 230.577 34.36 232.377 34.36C233.95 34.36 235.31 34.12 236.457 33.64L236.757 34.32C236.25 34.6133 235.583 34.84 234.757 35C233.943 35.16 233.15 35.24 232.377 35.24ZM241.346 33.1C240.026 31.6733 239.366 29.92 239.366 27.84C239.366 25.76 240.026 24.0133 241.346 22.6C242.68 21.1733 244.36 20.46 246.386 20.46C248.413 20.46 250.093 21.1733 251.426 22.6C252.76 24.0133 253.426 25.76 253.426 27.84C253.426 29.92 252.76 31.6733 251.426 33.1C250.093 34.5267 248.413 35.24 246.386 35.24C244.36 35.24 242.68 34.5267 241.346 33.1ZM242.066 23.22C240.96 24.46 240.406 26 240.406 27.84C240.406 29.68 240.96 31.2267 242.066 32.48C243.186 33.7333 244.626 34.36 246.386 34.36C248.16 34.36 249.6 33.7333 250.706 32.48C251.826 31.2267 252.386 29.68 252.386 27.84C252.386 26 251.826 24.46 250.706 23.22C249.6 21.9667 248.16 21.34 246.386 21.34C244.613 21.34 243.173 21.9667 242.066 23.22ZM262.427 32.1L267.227 20.7H268.247L262.087 35.12H261.527L255.347 20.7H256.427L261.227 32.06C261.561 32.8733 261.767 33.4333 261.847 33.74C261.954 33.3133 262.147 32.7667 262.427 32.1ZM271.202 35V20.7H277.843V21.54H272.163V26.8H277.303V27.62H272.163V34.16H278.063V35H271.202ZM281.906 35V20.76C283.172 20.6667 284.232 20.62 285.086 20.62C286.446 20.62 287.566 20.9733 288.446 21.68C289.326 22.3733 289.766 23.36 289.766 24.64C289.766 25.5067 289.512 26.3133 289.006 27.06C288.499 27.8067 287.932 28.4 287.306 28.84C287.799 29.52 288.406 30.3333 289.126 31.28C289.859 32.2133 290.332 32.8 290.546 33.04C291.359 33.9067 292.279 34.4 293.306 34.52L293.286 35.16C292.472 35.1467 291.812 35.0267 291.306 34.8C290.799 34.56 290.312 34.2 289.846 33.72C289.392 33.24 288.252 31.7467 286.426 29.24C285.119 29.24 283.932 29.2 282.866 29.12V35H281.906ZM285.846 28.44C286.432 28.44 287.059 28.0533 287.726 27.28C288.392 26.5067 288.726 25.6133 288.726 24.6C288.726 23.5733 288.379 22.8 287.686 22.28C287.006 21.7467 286.099 21.48 284.966 21.48C284.366 21.48 283.666 21.5067 282.866 21.56V28.34C283.932 28.4067 284.926 28.44 285.846 28.44Z" fill="black"/>
<rect x="0.5" y="0.5" width="481" height="57" rx="28.5" stroke="black"/>
</svg>
