<svg width="298" height="17" viewBox="0 0 298 17" fill="none" xmlns="http://www.w3.org/2000/svg">
<path d="M7.86922 14.32H7.32922L3.54922 5.14C3.38922 4.78 3.22922 4.36 3.06922 3.88C3.06922 3.89333 3.05589 3.96667 3.02922 4.1C3.01589 4.23333 2.99589 4.41333 2.96922 4.64C2.94255 4.85333 2.91589 5.03333 2.88922 5.18L1.38922 15H0.489219L2.60922 1.94H3.14922L7.18922 11.52C7.50922 12.32 7.66922 12.74 7.66922 12.78C7.76255 12.5 7.94255 12.0867 8.20922 11.54L12.7092 1.94H13.2492L15.2292 15H14.2692L12.8492 5.14C12.7559 4.48667 12.7092 4.05333 12.7092 3.84L12.1292 5.16L7.86922 14.32ZM24.4056 15.2C22.5523 15.2 20.999 14.5533 19.7456 13.26C18.4923 11.9667 17.8656 10.3867 17.8656 8.52C17.8656 6.64 18.4923 5.05333 19.7456 3.76C20.999 2.46667 22.5523 1.82 24.4056 1.82C26.259 1.82 27.8123 2.46667 29.0656 3.76C30.319 5.05333 30.9456 6.64 30.9456 8.52C30.9456 10.3867 30.319 11.9667 29.0656 13.26C27.8123 14.5533 26.259 15.2 24.4056 15.2ZM24.4056 2.64C22.8056 2.64 21.4723 3.20667 20.4056 4.34C19.3523 5.47333 18.8256 6.86667 18.8256 8.52C18.8256 10.16 19.3523 11.5467 20.4056 12.68C21.4723 13.8 22.8056 14.36 24.4056 14.36C26.019 14.36 27.3523 13.8 28.4056 12.68C29.459 11.5467 29.9856 10.16 29.9856 8.52C29.9856 6.86667 29.459 5.47333 28.4056 4.34C27.3523 3.20667 26.019 2.64 24.4056 2.64ZM34.9547 15V2.08C36.1014 1.98667 37.0747 1.94 37.8747 1.94C39.1014 1.94 40.1147 2.26 40.9147 2.9C41.7147 3.52667 42.1147 4.42667 42.1147 5.6C42.1147 6.38667 41.888 7.11333 41.4347 7.78C40.9814 8.44667 40.468 8.98667 39.8947 9.4C41.4814 11.5067 42.4614 12.7667 42.8347 13.18C43.5947 13.9667 44.4214 14.4133 45.3147 14.52L45.2947 15.14C44.548 15.1267 43.9414 15.02 43.4747 14.82C43.008 14.6067 42.5414 14.2533 42.0747 13.76C41.6214 13.2667 40.6147 11.94 39.0547 9.78C37.9747 9.78 36.9147 9.74667 35.8747 9.68V15H34.9547ZM38.5547 9.02C39.0747 9.02 39.6347 8.67333 40.2347 7.98C40.8347 7.28667 41.1347 6.48 41.1347 5.56C41.1347 4.64 40.8214 3.94 40.1947 3.46C39.568 2.98 38.7547 2.74 37.7547 2.74C37.2214 2.74 36.5947 2.76667 35.8747 2.82V8.92C36.8347 8.98667 37.728 9.02 38.5547 9.02ZM47.1227 15V2.02H53.1827V2.82H48.0427V7.54H52.6827V8.32H48.0427V14.16H53.3827V15H47.1227ZM66.5911 2.84H62.1911V2.02H71.8911V2.84H67.4911V15H66.5911V2.84ZM84.5431 15V8.44H75.5231V15H74.6031V2.02H75.5231V7.62H84.5431V2.02H85.4631V15H84.5431ZM91.2672 10.04L89.2072 15H88.1872L94.2072 0.599999H94.7672L100.807 15H99.7272L97.6672 10.04H91.2672ZM94.4272 2.2C94.4139 2.21333 94.3872 2.29333 94.3472 2.44C94.1605 3.01333 93.9805 3.5 93.8072 3.9L91.6072 9.22H97.3272L95.1272 3.92C94.6605 2.90667 94.4272 2.33333 94.4272 2.2ZM103.529 15V1.94H103.969L112.489 11.74C112.796 12.0867 113.076 12.4333 113.329 12.78C113.596 13.1133 113.736 13.2867 113.749 13.3C113.722 12.98 113.709 12.3533 113.709 11.42V2.02H114.629V15.08H114.189L105.509 5.12L104.409 3.78C104.436 4.04667 104.449 4.67333 104.449 5.66V15H103.529ZM127.274 10.5L125.414 15H124.474L129.914 1.94H130.454L135.934 15H134.914L133.034 10.5H127.274ZM130.134 3.42C129.934 4.02 129.754 4.52 129.594 4.92L127.594 9.72H132.714L130.734 4.94C130.428 4.19333 130.228 3.68667 130.134 3.42ZM145.775 15V2.1C146.775 1.99333 147.828 1.94 148.935 1.94C150.055 1.94 151.002 2.24 151.775 2.84C152.548 3.42667 152.935 4.32 152.935 5.52C152.935 6.72 152.408 7.70667 151.355 8.48C150.302 9.24 149.055 9.62 147.615 9.62C147.548 9.62 147.475 9.62 147.395 9.62V8.98C147.448 8.98 147.495 8.98 147.535 8.98C148.722 8.98 149.755 8.66667 150.635 8.04C151.515 7.41333 151.955 6.6 151.955 5.6C151.955 4.6 151.642 3.87333 151.015 3.42C150.402 2.96667 149.588 2.74 148.575 2.74C148.042 2.74 147.415 2.76667 146.695 2.82V15H145.775ZM166.281 15V8.44H157.261V15H156.341V2.02H157.261V7.62H166.281V2.02H167.201V15H166.281ZM177.745 15.2C175.892 15.2 174.339 14.5533 173.085 13.26C171.832 11.9667 171.205 10.3867 171.205 8.52C171.205 6.64 171.832 5.05333 173.085 3.76C174.339 2.46667 175.892 1.82 177.745 1.82C179.599 1.82 181.152 2.46667 182.405 3.76C183.659 5.05333 184.285 6.64 184.285 8.52C184.285 10.3867 183.659 11.9667 182.405 13.26C181.152 14.5533 179.599 15.2 177.745 15.2ZM177.745 2.64C176.145 2.64 174.812 3.20667 173.745 4.34C172.692 5.47333 172.165 6.86667 172.165 8.52C172.165 10.16 172.692 11.5467 173.745 12.68C174.812 13.8 176.145 14.36 177.745 14.36C179.359 14.36 180.692 13.8 181.745 12.68C182.799 11.5467 183.325 10.16 183.325 8.52C183.325 6.86667 182.799 5.47333 181.745 4.34C180.692 3.20667 179.359 2.64 177.745 2.64ZM190.165 2.84H185.765V2.02H195.465V2.84H191.065V15H190.165V2.84ZM203.468 15.2C201.615 15.2 200.061 14.5533 198.808 13.26C197.555 11.9667 196.928 10.3867 196.928 8.52C196.928 6.64 197.555 5.05333 198.808 3.76C200.061 2.46667 201.615 1.82 203.468 1.82C205.321 1.82 206.875 2.46667 208.128 3.76C209.381 5.05333 210.008 6.64 210.008 8.52C210.008 10.3867 209.381 11.9667 208.128 13.26C206.875 14.5533 205.321 15.2 203.468 15.2ZM203.468 2.64C201.868 2.64 200.535 3.20667 199.468 4.34C198.415 5.47333 197.888 6.86667 197.888 8.52C197.888 10.16 198.415 11.5467 199.468 12.68C200.535 13.8 201.868 14.36 203.468 14.36C205.081 14.36 206.415 13.8 207.468 12.68C208.521 11.5467 209.048 10.16 209.048 8.52C209.048 6.86667 208.521 5.47333 207.468 4.34C206.415 3.20667 205.081 2.64 203.468 2.64ZM211.377 13.94H212.437V14.92L211.597 16.46H211.137L211.377 15.24V13.94ZM223.29 10.5L221.43 15H220.49L225.93 1.94H226.47L231.95 15H230.93L229.05 10.5H223.29ZM226.15 3.42C225.95 4.02 225.77 4.52 225.61 4.92L223.61 9.72H228.73L226.75 4.94C226.443 4.19333 226.243 3.68667 226.15 3.42ZM244.411 2.58C243.691 2.58 243.104 2.75333 242.651 3.1C242.197 3.44667 241.971 3.93333 241.971 4.56C241.971 5.28 242.271 5.92667 242.871 6.5C243.297 6.91333 243.844 7.35333 244.511 7.82C245.191 8.27333 245.657 8.6 245.911 8.8C246.164 9 246.471 9.27333 246.831 9.62C247.484 10.2733 247.811 11.0267 247.811 11.88C247.811 12.9867 247.437 13.8267 246.691 14.4C245.957 14.96 244.924 15.24 243.591 15.24C242.271 15.24 241.164 14.8933 240.271 14.2L240.751 13.5C241.657 14.1133 242.617 14.42 243.631 14.42C244.644 14.42 245.431 14.2067 245.991 13.78C246.564 13.3533 246.851 12.7533 246.851 11.98C246.851 11.3133 246.564 10.7 245.991 10.14C245.591 9.74 245.051 9.30667 244.371 8.84C243.704 8.37333 243.237 8.04 242.971 7.84C242.704 7.62667 242.391 7.34667 242.031 7C241.351 6.32 241.011 5.53333 241.011 4.64C241.011 3.74667 241.324 3.04667 241.951 2.54C242.591 2.03333 243.471 1.78 244.591 1.78C245.711 1.78 246.717 2 247.611 2.44L247.271 3.18C246.444 2.78 245.491 2.58 244.411 2.58ZM253.818 2.84H249.418V2.02H259.118V2.84H254.718V15H253.818V2.84ZM267.12 15.2C265.267 15.2 263.714 14.5533 262.46 13.26C261.207 11.9667 260.58 10.3867 260.58 8.52C260.58 6.64 261.207 5.05333 262.46 3.76C263.714 2.46667 265.267 1.82 267.12 1.82C268.974 1.82 270.527 2.46667 271.78 3.76C273.034 5.05333 273.66 6.64 273.66 8.52C273.66 10.3867 273.034 11.9667 271.78 13.26C270.527 14.5533 268.974 15.2 267.12 15.2ZM267.12 2.64C265.52 2.64 264.187 3.20667 263.12 4.34C262.067 5.47333 261.54 6.86667 261.54 8.52C261.54 10.16 262.067 11.5467 263.12 12.68C264.187 13.8 265.52 14.36 267.12 14.36C268.734 14.36 270.067 13.8 271.12 12.68C272.174 11.5467 272.7 10.16 272.7 8.52C272.7 6.86667 272.174 5.47333 271.12 4.34C270.067 3.20667 268.734 2.64 267.12 2.64ZM277.67 15V2.08C278.816 1.98667 279.79 1.94 280.59 1.94C281.816 1.94 282.83 2.26 283.63 2.9C284.43 3.52667 284.83 4.42667 284.83 5.6C284.83 6.38667 284.603 7.11333 284.15 7.78C283.696 8.44667 283.183 8.98667 282.61 9.4C284.196 11.5067 285.176 12.7667 285.55 13.18C286.31 13.9667 287.136 14.4133 288.03 14.52L288.01 15.14C287.263 15.1267 286.656 15.02 286.19 14.82C285.723 14.6067 285.256 14.2533 284.79 13.76C284.336 13.2667 283.33 11.94 281.77 9.78C280.69 9.78 279.63 9.74667 278.59 9.68V15H277.67ZM281.27 9.02C281.79 9.02 282.35 8.67333 282.95 7.98C283.55 7.28667 283.85 6.48 283.85 5.56C283.85 4.64 283.536 3.94 282.91 3.46C282.283 2.98 281.47 2.74 280.47 2.74C279.936 2.74 279.31 2.76667 278.59 2.82V8.92C279.55 8.98667 280.443 9.02 281.27 9.02ZM292.716 15H291.816V10.36L286.916 2.02H288.016L291.796 8.46C292.089 9.04667 292.256 9.36 292.296 9.4C292.376 9.22667 292.542 8.92 292.796 8.48L296.576 2.02H297.616L292.716 10.4V15ZM296.885 15V13.94H297.945V15H296.885Z" fill="black"/>
</svg>
