<svg width="188" height="202" viewBox="0 0 188 202" fill="none" xmlns="http://www.w3.org/2000/svg">
<path d="M69.4956 39.6929L68.1045 39.845L85.2794 196.652L86.6705 196.5L69.4956 39.6929Z" fill="#292A2E"/>
<path d="M113.979 108.15L105.53 191.662L106.922 191.802L115.371 108.29L113.979 108.15Z" fill="#292A2E"/>
<path d="M128.509 181.567H65.8142V201.895H128.509V181.567Z" fill="#292A2E"/>
<path opacity="0.2" d="M128.509 181.567H65.8142V201.895H128.509V181.567Z" fill="white"/>
<path d="M166.305 144.137C178.181 128.366 172.52 104.088 153.659 89.9102C134.798 75.7321 109.88 77.0232 98.0037 92.7938C86.127 108.564 91.7887 132.843 110.649 147.021C129.51 161.199 154.428 159.908 166.305 144.137Z" fill="#0CBC8B"/>
<path opacity="0.2" d="M166.305 144.137C178.181 128.366 172.52 104.088 153.659 89.9102C134.798 75.7321 109.88 77.0232 98.0037 92.7938C86.127 108.564 91.7887 132.843 110.649 147.021C129.51 161.199 154.428 159.908 166.305 144.137Z" fill="white"/>
<path opacity="0.5" d="M166.302 144.14C165.505 145.203 164.634 146.211 163.698 147.155C150.624 155.5 131.326 154.186 116.017 142.676C97.1583 128.501 91.4979 104.223 103.376 88.4522C104.175 87.391 105.043 86.3838 105.974 85.437C119.055 77.0861 138.346 78.4062 153.661 89.9099C172.519 104.092 178.18 128.37 166.302 144.14Z" fill="white"/>
<path d="M78.8074 84.3042C97.4917 69.8947 102.57 45.182 90.1499 29.1068C77.73 13.0316 52.5151 11.6812 33.8308 26.0907C15.1466 40.5002 10.0684 65.2129 22.4883 81.2881C34.9082 97.3634 60.1232 98.7137 78.8074 84.3042Z" fill="#0CBC8B"/>
<path opacity="0.2" d="M72.8941 80.1696C58.424 91.3361 40.0345 93.0376 26.7045 85.7686C25.1617 84.4113 23.7527 82.9095 22.4966 81.2837C10.0705 65.2129 15.1484 40.4967 33.8319 26.0905C48.302 14.9305 66.6915 13.2225 80.0151 20.4852C81.561 21.8433 82.972 23.3474 84.2286 24.9765C96.6515 41.0473 91.5736 65.7635 72.8941 80.1696Z" fill="white"/>
</svg>
