<svg width="575" height="694" viewBox="0 0 575 694" fill="none" xmlns="http://www.w3.org/2000/svg">
<g clip-path="url(#clip0_26_317)">
<path d="M545.998 0.881348H77.6738C62.1441 0.881348 49.5547 13.4593 49.5547 28.9749V397.183C49.5547 412.699 62.1441 425.277 77.6738 425.277H545.998C561.528 425.277 574.117 412.699 574.117 397.183V28.9749C574.117 13.4593 561.528 0.881348 545.998 0.881348Z" fill="white"/>
<path d="M545.998 426.159H77.6738C69.9843 426.151 62.6122 423.095 57.1748 417.663C51.7375 412.231 48.6792 404.865 48.6709 397.183V28.9766C48.6792 21.2941 51.7375 13.9286 57.1748 8.49622C62.6122 3.06386 69.9843 0.00830923 77.6738 0L545.998 0C553.687 0.00852186 561.059 3.06414 566.497 8.49645C571.934 13.9288 574.992 21.2941 575.001 28.9766V397.183C574.992 404.866 571.933 412.231 566.496 417.663C561.059 423.095 553.687 426.151 545.998 426.159ZM77.6738 1.76355C70.4526 1.77185 63.5294 4.64163 58.4233 9.74328C53.3171 14.8449 50.445 21.7618 50.4369 28.9766V397.183C50.4452 404.398 53.3174 411.315 58.4236 416.416C63.5297 421.518 70.4527 424.387 77.6738 424.396H545.998C553.219 424.388 560.142 421.518 565.248 416.416C570.354 411.315 573.227 404.398 573.235 397.183V28.9766C573.227 21.7618 570.355 14.8447 565.249 9.74304C560.142 4.64134 553.219 1.77164 545.998 1.76355H77.6738Z" fill="#292A2E"/>
<path opacity="0.2" d="M533.005 77.1759H504.249C498.188 77.1759 493.275 82.0848 493.275 88.1403V116.87C493.275 122.925 498.188 127.834 504.249 127.834H533.005C539.066 127.834 543.979 122.925 543.979 116.87V88.1403C543.979 82.0848 539.066 77.1759 533.005 77.1759Z" fill="#888888"/>
<path opacity="0.2" d="M533.897 141.163H505.362C499.24 141.163 494.278 146.122 494.278 152.238V180.747C494.278 186.863 499.24 191.822 505.362 191.822H533.897C540.019 191.822 544.982 186.863 544.982 180.747V152.238C544.982 146.122 540.019 141.163 533.897 141.163Z" fill="#888888"/>
<path opacity="0.2" d="M533.897 212.43H505.362C499.24 212.43 494.278 217.388 494.278 223.504V252.013C494.278 258.13 499.24 263.088 505.362 263.088H533.897C540.019 263.088 544.982 258.13 544.982 252.013V223.504C544.982 217.388 540.019 212.43 533.897 212.43Z" fill="#888888"/>
<path opacity="0.2" d="M532.894 280.05H504.359C498.237 280.05 493.275 285.008 493.275 291.124V319.633C493.275 325.75 498.237 330.708 504.359 330.708H532.894C539.016 330.708 543.979 325.75 543.979 319.633V291.124C543.979 285.008 539.016 280.05 532.894 280.05Z" fill="#888888"/>
<g opacity="0.15">
<path d="M326.246 77.1759H297.49C291.429 77.1759 286.516 82.0848 286.516 88.1403V116.87C286.516 122.925 291.429 127.834 297.49 127.834H326.246C332.307 127.834 337.22 122.925 337.22 116.87V88.1403C337.22 82.0848 332.307 77.1759 326.246 77.1759Z" fill="#888888"/>
<path d="M257.326 77.1759H228.57C222.509 77.1759 217.596 82.0848 217.596 88.1403V116.87C217.596 122.925 222.509 127.834 228.57 127.834H257.326C263.387 127.834 268.3 122.925 268.3 116.87V88.1403C268.3 82.0848 263.387 77.1759 257.326 77.1759Z" fill="#888888"/>
<path d="M189.409 77.1759H160.654C154.593 77.1759 149.679 82.0848 149.679 88.1403V116.87C149.679 122.925 154.593 127.834 160.654 127.834H189.409C195.47 127.834 200.384 122.925 200.384 116.87V88.1403C200.384 82.0848 195.47 77.1759 189.409 77.1759Z" fill="#888888"/>
<path d="M120.489 77.1759H91.7338C85.6728 77.1759 80.7594 82.0848 80.7594 88.1403V116.87C80.7594 122.925 85.6728 127.834 91.7338 127.834H120.489C126.55 127.834 131.464 122.925 131.464 116.87V88.1403C131.464 82.0848 126.55 77.1759 120.489 77.1759Z" fill="#888888"/>
<path d="M395.165 77.1759H366.409C360.348 77.1759 355.435 82.0848 355.435 88.1403V116.87C355.435 122.925 360.348 127.834 366.409 127.834H395.165C401.226 127.834 406.139 122.925 406.139 116.87V88.1403C406.139 82.0848 401.226 77.1759 395.165 77.1759Z" fill="#888888"/>
<path d="M464.085 77.1759H435.329C429.268 77.1759 424.355 82.0848 424.355 88.1403V116.87C424.355 122.925 429.268 127.834 435.329 127.834H464.085C470.146 127.834 475.059 122.925 475.059 116.87V88.1403C475.059 82.0848 470.146 77.1759 464.085 77.1759Z" fill="#888888"/>
<path d="M327.138 141.163H298.603C292.481 141.163 287.518 146.122 287.518 152.238V180.747C287.518 186.863 292.481 191.822 298.603 191.822H327.138C333.26 191.822 338.222 186.863 338.222 180.747V152.238C338.222 146.122 333.26 141.163 327.138 141.163Z" fill="#888888"/>
<path d="M396.057 141.163H367.523C361.401 141.163 356.438 146.122 356.438 152.238V180.747C356.438 186.863 361.401 191.822 367.523 191.822H396.057C402.179 191.822 407.142 186.863 407.142 180.747V152.238C407.142 146.122 402.179 141.163 396.057 141.163Z" fill="#888888"/>
<path d="M464.977 141.163H436.442C430.321 141.163 425.358 146.122 425.358 152.238V180.747C425.358 186.863 430.321 191.822 436.442 191.822H464.977C471.099 191.822 476.062 186.863 476.062 180.747V152.238C476.062 146.122 471.099 141.163 464.977 141.163Z" fill="#888888"/>
<path d="M120.379 141.163H91.8442C85.7222 141.163 80.7594 146.122 80.7594 152.238V180.747C80.7594 186.863 85.7222 191.822 91.8442 191.822H120.379C126.501 191.822 131.464 186.863 131.464 180.747V152.238C131.464 146.122 126.501 141.163 120.379 141.163Z" fill="#888888"/>
<path d="M189.299 141.163H160.764C154.642 141.163 149.679 146.122 149.679 152.238V180.747C149.679 186.863 154.642 191.822 160.764 191.822H189.299C195.421 191.822 200.384 186.863 200.384 180.747V152.238C200.384 146.122 195.421 141.163 189.299 141.163Z" fill="#888888"/>
<path d="M258.218 141.163H229.683C223.561 141.163 218.598 146.122 218.598 152.238V180.747C218.598 186.863 223.561 191.822 229.683 191.822H258.218C264.34 191.822 269.303 186.863 269.303 180.747V152.238C269.303 146.122 264.34 141.163 258.218 141.163Z" fill="#888888"/>
<path d="M327.138 212.43H298.603C292.481 212.43 287.518 217.388 287.518 223.504V252.013C287.518 258.13 292.481 263.088 298.603 263.088H327.138C333.26 263.088 338.222 258.13 338.222 252.013V223.504C338.222 217.388 333.26 212.43 327.138 212.43Z" fill="#888888"/>
<path d="M396.057 212.43H367.523C361.401 212.43 356.438 217.388 356.438 223.504V252.013C356.438 258.13 361.401 263.088 367.523 263.088H396.057C402.179 263.088 407.142 258.13 407.142 252.013V223.504C407.142 217.388 402.179 212.43 396.057 212.43Z" fill="#888888"/>
<path d="M464.977 212.43H436.442C430.321 212.43 425.358 217.388 425.358 223.504V252.013C425.358 258.13 430.321 263.088 436.442 263.088H464.977C471.099 263.088 476.062 258.13 476.062 252.013V223.504C476.062 217.388 471.099 212.43 464.977 212.43Z" fill="#888888"/>
<path d="M120.379 212.43H91.8442C85.7222 212.43 80.7594 217.388 80.7594 223.504V252.013C80.7594 258.13 85.7222 263.088 91.8442 263.088H120.379C126.501 263.088 131.464 258.13 131.464 252.013V223.504C131.464 217.388 126.501 212.43 120.379 212.43Z" fill="#888888"/>
<path d="M189.299 212.43H160.764C154.642 212.43 149.679 217.388 149.679 223.504V252.013C149.679 258.13 154.642 263.088 160.764 263.088H189.299C195.421 263.088 200.384 258.13 200.384 252.013V223.504C200.384 217.388 195.421 212.43 189.299 212.43Z" fill="#888888"/>
<path d="M258.218 212.43H229.683C223.561 212.43 218.598 217.388 218.598 223.504V252.013C218.598 258.13 223.561 263.088 229.683 263.088H258.218C264.34 263.088 269.303 258.13 269.303 252.013V223.504C269.303 217.388 264.34 212.43 258.218 212.43Z" fill="#888888"/>
<path d="M327.138 281.051H298.603C292.481 281.051 287.518 286.009 287.518 292.126V320.635C287.518 326.751 292.481 331.709 298.603 331.709H327.138C333.26 331.709 338.222 326.751 338.222 320.635V292.126C338.222 286.009 333.26 281.051 327.138 281.051Z" fill="#888888"/>
<path d="M395.054 280.05H366.52C360.398 280.05 355.435 285.008 355.435 291.124V319.633C355.435 325.75 360.398 330.708 366.52 330.708H395.054C401.176 330.708 406.139 325.75 406.139 319.633V291.124C406.139 285.008 401.176 280.05 395.054 280.05Z" fill="#888888"/>
<path d="M463.974 280.05H435.439C429.317 280.05 424.355 285.008 424.355 291.124V319.633C424.355 325.75 429.317 330.708 435.439 330.708H463.974C470.096 330.708 475.059 325.75 475.059 319.633V291.124C475.059 285.008 470.096 280.05 463.974 280.05Z" fill="#888888"/>
<path d="M120.379 281.051H91.8442C85.7222 281.051 80.7594 286.009 80.7594 292.126V320.635C80.7594 326.751 85.7222 331.709 91.8442 331.709H120.379C126.501 331.709 131.464 326.751 131.464 320.635V292.126C131.464 286.009 126.501 281.051 120.379 281.051Z" fill="#888888"/>
<path d="M189.299 281.051H160.764C154.642 281.051 149.679 286.009 149.679 292.126V320.635C149.679 326.751 154.642 331.709 160.764 331.709H189.299C195.421 331.709 200.384 326.751 200.384 320.635V292.126C200.384 286.009 195.421 281.051 189.299 281.051Z" fill="#888888"/>
<path d="M258.218 281.051H229.683C223.561 281.051 218.598 286.009 218.598 292.126V320.635C218.598 326.751 223.561 331.709 229.683 331.709H258.218C264.34 331.709 269.303 326.751 269.303 320.635V292.126C269.303 286.009 264.34 281.051 258.218 281.051Z" fill="#888888"/>
<path d="M326.135 343.207H297.601C291.479 343.207 286.516 348.165 286.516 354.281V382.79C286.516 388.907 291.479 393.865 297.601 393.865H326.135C332.257 393.865 337.22 388.907 337.22 382.79V354.281C337.22 348.165 332.257 343.207 326.135 343.207Z" fill="#888888"/>
<path d="M119.376 343.207H90.8411C84.7192 343.207 79.7563 348.165 79.7563 354.281V382.79C79.7563 388.907 84.7192 393.865 90.8411 393.865H119.376C125.498 393.865 130.461 388.907 130.461 382.79V354.281C130.461 348.165 125.498 343.207 119.376 343.207Z" fill="#888888"/>
<path d="M188.296 343.207H159.761C153.639 343.207 148.676 348.165 148.676 354.281V382.79C148.676 388.907 153.639 393.865 159.761 393.865H188.296C194.418 393.865 199.381 388.907 199.381 382.79V354.281C199.381 348.165 194.418 343.207 188.296 343.207Z" fill="#888888"/>
<path d="M257.216 343.207H228.681C222.559 343.207 217.596 348.165 217.596 354.281V382.79C217.596 388.907 222.559 393.865 228.681 393.865H257.216C263.337 393.865 268.3 388.907 268.3 382.79V354.281C268.3 348.165 263.337 343.207 257.216 343.207Z" fill="#888888"/>
</g>
<path d="M574.117 28.9765V46.9879H49.5571V28.9765C49.5561 25.2869 50.2826 21.6331 51.6951 18.224C53.1076 14.8149 55.1785 11.7172 57.7895 9.10788C60.4005 6.49852 63.5004 4.42862 66.9122 3.0164C70.324 1.60419 73.9808 0.877319 77.6739 0.877319H545.999C549.692 0.877742 553.348 1.60489 556.76 3.01723C560.172 4.42958 563.272 6.49947 565.883 9.10872C568.494 11.718 570.565 14.8155 571.978 18.2244C573.39 21.6333 574.117 25.2869 574.117 28.9765V28.9765Z" fill="#292A2E"/>
<path d="M256.576 348.81H229.32C225.943 348.81 223.205 351.546 223.205 354.92V382.151C223.205 385.525 225.943 388.261 229.32 388.261H256.576C259.953 388.261 262.692 385.525 262.692 382.151V354.92C262.692 351.546 259.953 348.81 256.576 348.81Z" fill="white"/>
<path d="M327.654 330.945L294.004 324.861C293.05 324.689 292.204 324.145 291.652 323.349C291.099 322.553 290.886 321.571 291.058 320.618L296.262 291.89L306.619 285L335.045 290.14C335.998 290.313 336.844 290.856 337.397 291.652C337.949 292.448 338.162 293.43 337.99 294.383L331.9 328.002C331.815 328.474 331.637 328.924 331.378 329.328C331.118 329.731 330.781 330.079 330.387 330.352C329.993 330.626 329.548 330.819 329.079 330.92C328.61 331.022 328.126 331.03 327.654 330.945Z" fill="#888888"/>
<path opacity="0.29" d="M306.619 285L296.262 291.89L305.107 293.642L306.619 285Z" fill="#FFFFFA"/>
<g opacity="0.88">
<path d="M330.284 311.343C330.25 311.344 330.216 311.341 330.182 311.335L298.695 305.517C298.562 305.493 298.444 305.416 298.367 305.305C298.291 305.194 298.262 305.056 298.286 304.923C298.311 304.791 298.387 304.673 298.498 304.596C298.61 304.52 298.747 304.49 298.88 304.515L330.368 310.333C330.492 310.356 330.602 310.424 330.679 310.524C330.756 310.624 330.792 310.749 330.782 310.874C330.772 311 330.716 311.117 330.625 311.203C330.533 311.29 330.413 311.34 330.287 311.343H330.284Z" fill="white"/>
<path d="M329.155 317.942C329.121 317.942 329.087 317.939 329.053 317.934L297.566 312.116C297.498 312.106 297.433 312.082 297.374 312.047C297.315 312.011 297.265 311.964 297.225 311.908C297.184 311.852 297.156 311.789 297.141 311.722C297.126 311.655 297.125 311.586 297.137 311.518C297.15 311.45 297.176 311.386 297.214 311.329C297.252 311.272 297.301 311.223 297.358 311.185C297.416 311.147 297.48 311.121 297.548 311.109C297.615 311.096 297.685 311.098 297.752 311.113L329.238 316.931C329.363 316.953 329.475 317.021 329.552 317.121C329.63 317.221 329.667 317.346 329.657 317.473C329.647 317.599 329.59 317.717 329.498 317.803C329.406 317.89 329.284 317.939 329.158 317.942H329.155Z" fill="white"/>
<path d="M310.681 320.626C310.647 320.627 310.613 320.624 310.58 320.618L296.613 318.037C296.545 318.027 296.48 318.004 296.421 317.968C296.362 317.933 296.311 317.886 296.271 317.83C296.231 317.774 296.203 317.711 296.188 317.644C296.173 317.577 296.172 317.507 296.184 317.44C296.197 317.372 296.223 317.308 296.261 317.251C296.299 317.193 296.348 317.144 296.405 317.106C296.462 317.069 296.527 317.043 296.594 317.03C296.662 317.018 296.731 317.019 296.799 317.034L310.765 319.616C310.889 319.639 311 319.707 311.076 319.807C311.153 319.907 311.19 320.032 311.18 320.157C311.17 320.282 311.114 320.4 311.022 320.486C310.931 320.573 310.81 320.623 310.684 320.626H310.681Z" fill="white"/>
</g>
<path d="M330.434 305.981C330.309 305.98 330.185 305.969 330.063 305.947L323.249 304.706C322.98 304.657 322.724 304.555 322.495 304.407C322.265 304.259 322.068 304.067 321.913 303.842C321.758 303.617 321.649 303.364 321.593 303.097C321.536 302.83 321.533 302.554 321.583 302.286L322.728 295.058C322.827 294.522 323.133 294.046 323.58 293.734C324.027 293.421 324.579 293.296 325.118 293.386L331.952 294.553C332.223 294.599 332.482 294.698 332.714 294.845C332.947 294.992 333.148 295.184 333.305 295.409C333.462 295.634 333.573 295.889 333.632 296.157C333.69 296.426 333.694 296.703 333.644 296.973L332.478 304.281C332.389 304.758 332.136 305.188 331.763 305.499C331.389 305.809 330.919 305.98 330.434 305.981ZM324.77 294.161C324.474 294.162 324.188 294.266 323.96 294.454C323.733 294.643 323.577 294.905 323.522 295.195L322.377 302.423C322.344 302.588 322.345 302.757 322.379 302.922C322.413 303.086 322.479 303.242 322.574 303.381C322.668 303.52 322.79 303.638 322.93 303.73C323.071 303.822 323.229 303.884 323.394 303.914L330.208 305.156C330.537 305.213 330.876 305.14 331.152 304.95C331.427 304.761 331.617 304.471 331.681 304.143L332.848 296.83C332.879 296.664 332.877 296.495 332.842 296.33C332.807 296.166 332.739 296.01 332.643 295.872C332.547 295.734 332.424 295.616 332.282 295.526C332.14 295.436 331.981 295.375 331.816 295.346L324.981 294.179C324.912 294.167 324.841 294.161 324.77 294.161V294.161Z" fill="white"/>
<path d="M391.654 130.945L358.004 124.861C357.05 124.689 356.204 124.145 355.652 123.349C355.099 122.553 354.886 121.571 355.058 120.618L360.262 91.89L370.619 85L399.045 90.1401C399.998 90.3125 400.844 90.8564 401.397 91.652C401.949 92.4477 402.162 93.4299 401.99 94.3828L395.9 128.002C395.815 128.474 395.637 128.924 395.378 129.328C395.118 129.731 394.781 130.079 394.387 130.352C393.993 130.626 393.548 130.819 393.079 130.92C392.61 131.022 392.126 131.03 391.654 130.945Z" fill="#888888"/>
<path opacity="0.29" d="M370.619 85L360.262 91.89L369.107 93.6423L370.619 85Z" fill="#FFFFFA"/>
<g opacity="0.88">
<path d="M394.284 111.343C394.25 111.344 394.216 111.341 394.182 111.335L362.695 105.517C362.562 105.493 362.444 105.416 362.367 105.305C362.291 105.194 362.262 105.056 362.286 104.923C362.311 104.791 362.387 104.673 362.498 104.596C362.61 104.52 362.747 104.49 362.88 104.515L394.368 110.333C394.492 110.356 394.602 110.424 394.679 110.524C394.756 110.624 394.792 110.749 394.782 110.874C394.772 111 394.716 111.117 394.625 111.203C394.533 111.29 394.413 111.34 394.287 111.343H394.284Z" fill="white"/>
<path d="M393.155 117.942C393.121 117.942 393.087 117.939 393.053 117.934L361.566 112.116C361.498 112.106 361.433 112.082 361.374 112.047C361.315 112.011 361.265 111.964 361.225 111.908C361.184 111.852 361.156 111.789 361.141 111.722C361.126 111.655 361.125 111.586 361.137 111.518C361.15 111.45 361.176 111.386 361.214 111.329C361.252 111.272 361.301 111.223 361.358 111.185C361.416 111.147 361.48 111.121 361.548 111.109C361.615 111.096 361.685 111.098 361.752 111.113L393.238 116.931C393.363 116.953 393.475 117.021 393.552 117.121C393.63 117.221 393.667 117.346 393.657 117.473C393.647 117.599 393.59 117.717 393.498 117.803C393.406 117.89 393.284 117.939 393.158 117.942H393.155Z" fill="white"/>
<path d="M374.681 120.626C374.647 120.627 374.613 120.624 374.58 120.618L360.613 118.037C360.545 118.027 360.48 118.004 360.421 117.968C360.362 117.933 360.311 117.886 360.271 117.83C360.231 117.774 360.203 117.711 360.188 117.644C360.173 117.577 360.172 117.507 360.184 117.44C360.197 117.372 360.223 117.308 360.261 117.251C360.299 117.193 360.348 117.144 360.405 117.106C360.462 117.069 360.527 117.043 360.594 117.03C360.662 117.018 360.731 117.019 360.799 117.034L374.765 119.616C374.889 119.639 375 119.707 375.076 119.807C375.153 119.907 375.19 120.032 375.18 120.157C375.17 120.282 375.114 120.4 375.022 120.486C374.931 120.573 374.81 120.623 374.684 120.626H374.681Z" fill="white"/>
</g>
<path d="M394.434 105.981C394.309 105.98 394.185 105.969 394.063 105.947L387.249 104.706C386.98 104.657 386.724 104.555 386.495 104.407C386.265 104.259 386.068 104.067 385.913 103.842C385.758 103.617 385.649 103.364 385.593 103.097C385.536 102.83 385.533 102.554 385.583 102.286L386.728 95.0581C386.827 94.522 387.133 94.0463 387.58 93.7336C388.027 93.4209 388.579 93.2961 389.118 93.3863L395.952 94.5534C396.223 94.5992 396.482 94.6984 396.714 94.8453C396.947 94.9922 397.148 95.1839 397.305 95.4091C397.462 95.6343 397.573 95.8885 397.632 96.157C397.69 96.4255 397.694 96.7029 397.644 96.9729L396.478 104.281C396.389 104.758 396.136 105.188 395.763 105.499C395.389 105.809 394.919 105.98 394.434 105.981ZM388.77 94.1614C388.474 94.1623 388.188 94.2658 387.96 94.4544C387.733 94.6429 387.577 94.9047 387.522 95.1949L386.377 102.423C386.344 102.588 386.345 102.757 386.379 102.922C386.413 103.086 386.479 103.242 386.574 103.381C386.668 103.52 386.79 103.638 386.93 103.73C387.071 103.822 387.229 103.884 387.394 103.914L394.208 105.156C394.537 105.213 394.876 105.14 395.152 104.95C395.427 104.761 395.617 104.471 395.681 104.143L396.848 96.8297C396.879 96.6644 396.877 96.4946 396.842 96.3301C396.807 96.1657 396.739 96.0099 396.643 95.8719C396.547 95.7338 396.424 95.6162 396.282 95.526C396.14 95.4357 395.981 95.3746 395.816 95.3462L388.981 94.1791C388.912 94.1673 388.841 94.1614 388.77 94.1614V94.1614Z" fill="white"/>
<path d="M529.654 193.945L496.004 187.861C495.05 187.689 494.204 187.145 493.652 186.349C493.099 185.553 492.886 184.571 493.058 183.618L498.262 154.89L508.619 148L537.045 153.14C537.998 153.313 538.844 153.856 539.397 154.652C539.949 155.448 540.162 156.43 539.99 157.383L533.9 191.002C533.815 191.474 533.637 191.924 533.378 192.328C533.118 192.731 532.781 193.079 532.387 193.352C531.993 193.626 531.548 193.819 531.079 193.92C530.61 194.022 530.126 194.03 529.654 193.945Z" fill="#888888"/>
<path opacity="0.29" d="M508.619 148L498.262 154.89L507.107 156.642L508.619 148Z" fill="#FFFFFA"/>
<g opacity="0.88">
<path d="M532.284 174.343C532.25 174.344 532.216 174.341 532.182 174.335L500.695 168.517C500.562 168.493 500.444 168.416 500.367 168.305C500.291 168.194 500.262 168.056 500.286 167.923C500.311 167.791 500.387 167.673 500.498 167.596C500.61 167.52 500.747 167.49 500.88 167.515L532.368 173.333C532.492 173.356 532.602 173.424 532.679 173.524C532.756 173.624 532.792 173.749 532.782 173.874C532.772 174 532.716 174.117 532.625 174.203C532.533 174.29 532.413 174.34 532.287 174.343H532.284Z" fill="white"/>
<path d="M531.155 180.942C531.121 180.942 531.087 180.939 531.053 180.934L499.566 175.116C499.498 175.106 499.433 175.082 499.374 175.047C499.315 175.011 499.265 174.964 499.225 174.908C499.184 174.852 499.156 174.789 499.141 174.722C499.126 174.655 499.125 174.586 499.137 174.518C499.15 174.45 499.176 174.386 499.214 174.329C499.252 174.272 499.301 174.223 499.358 174.185C499.416 174.147 499.48 174.121 499.548 174.109C499.615 174.096 499.685 174.098 499.752 174.113L531.238 179.931C531.363 179.953 531.475 180.021 531.552 180.121C531.63 180.221 531.667 180.346 531.657 180.473C531.647 180.599 531.59 180.717 531.498 180.803C531.406 180.89 531.284 180.939 531.158 180.942H531.155Z" fill="white"/>
<path d="M512.681 183.626C512.647 183.627 512.613 183.624 512.58 183.618L498.613 181.037C498.545 181.027 498.48 181.004 498.421 180.968C498.362 180.933 498.311 180.886 498.271 180.83C498.231 180.774 498.203 180.711 498.188 180.644C498.173 180.577 498.172 180.507 498.184 180.44C498.197 180.372 498.223 180.308 498.261 180.251C498.299 180.193 498.348 180.144 498.405 180.106C498.462 180.069 498.527 180.043 498.594 180.03C498.662 180.018 498.731 180.019 498.799 180.034L512.765 182.616C512.889 182.639 513 182.707 513.076 182.807C513.153 182.907 513.19 183.032 513.18 183.157C513.17 183.282 513.114 183.4 513.022 183.486C512.931 183.573 512.81 183.623 512.684 183.626H512.681Z" fill="white"/>
</g>
<path d="M532.434 168.981C532.309 168.98 532.185 168.969 532.063 168.947L525.249 167.706C524.98 167.657 524.724 167.555 524.495 167.407C524.265 167.259 524.068 167.067 523.913 166.842C523.758 166.617 523.649 166.364 523.593 166.097C523.536 165.83 523.533 165.554 523.583 165.286L524.728 158.058C524.827 157.522 525.133 157.046 525.58 156.734C526.027 156.421 526.579 156.296 527.118 156.386L533.952 157.553C534.223 157.599 534.482 157.698 534.714 157.845C534.947 157.992 535.148 158.184 535.305 158.409C535.462 158.634 535.573 158.889 535.632 159.157C535.69 159.426 535.694 159.703 535.644 159.973L534.478 167.281C534.389 167.758 534.136 168.188 533.763 168.499C533.389 168.809 532.919 168.98 532.434 168.981ZM526.77 157.161C526.474 157.162 526.188 157.266 525.96 157.454C525.733 157.643 525.577 157.905 525.522 158.195L524.377 165.423C524.344 165.588 524.345 165.757 524.379 165.922C524.413 166.086 524.479 166.242 524.574 166.381C524.668 166.52 524.79 166.638 524.93 166.73C525.071 166.822 525.229 166.884 525.394 166.914L532.208 168.156C532.537 168.213 532.876 168.14 533.152 167.95C533.427 167.761 533.617 167.471 533.681 167.143L534.848 159.83C534.879 159.664 534.877 159.495 534.842 159.33C534.807 159.166 534.739 159.01 534.643 158.872C534.547 158.734 534.424 158.616 534.282 158.526C534.14 158.436 533.981 158.375 533.816 158.346L526.981 157.179C526.912 157.167 526.841 157.161 526.77 157.161V157.161Z" fill="white"/>
<path d="M397.654 258.945L364.004 252.861C363.05 252.689 362.204 252.145 361.652 251.349C361.099 250.553 360.886 249.571 361.058 248.618L366.262 219.89L376.619 213L405.045 218.14C405.998 218.313 406.844 218.856 407.397 219.652C407.949 220.448 408.162 221.43 407.99 222.383L401.9 256.002C401.815 256.474 401.637 256.924 401.378 257.328C401.118 257.731 400.781 258.079 400.387 258.352C399.993 258.626 399.548 258.819 399.079 258.92C398.61 259.022 398.126 259.03 397.654 258.945Z" fill="#888888"/>
<path opacity="0.29" d="M376.619 213L366.262 219.89L375.107 221.642L376.619 213Z" fill="#FFFFFA"/>
<g opacity="0.88">
<path d="M400.284 239.343C400.25 239.344 400.216 239.341 400.182 239.335L368.695 233.517C368.562 233.493 368.444 233.416 368.367 233.305C368.291 233.194 368.262 233.056 368.286 232.923C368.311 232.791 368.387 232.673 368.498 232.596C368.61 232.52 368.747 232.49 368.88 232.515L400.368 238.333C400.492 238.356 400.602 238.424 400.679 238.524C400.756 238.624 400.792 238.749 400.782 238.874C400.772 239 400.716 239.117 400.625 239.203C400.533 239.29 400.413 239.34 400.287 239.343H400.284Z" fill="white"/>
<path d="M399.155 245.942C399.121 245.942 399.087 245.939 399.053 245.934L367.566 240.116C367.498 240.106 367.433 240.082 367.374 240.047C367.315 240.011 367.265 239.964 367.225 239.908C367.184 239.852 367.156 239.789 367.141 239.722C367.126 239.655 367.125 239.586 367.137 239.518C367.15 239.45 367.176 239.386 367.214 239.329C367.252 239.272 367.301 239.223 367.358 239.185C367.416 239.147 367.48 239.121 367.548 239.109C367.615 239.096 367.685 239.098 367.752 239.113L399.238 244.931C399.363 244.953 399.475 245.021 399.552 245.121C399.63 245.221 399.667 245.346 399.657 245.473C399.647 245.599 399.59 245.717 399.498 245.803C399.406 245.89 399.284 245.939 399.158 245.942H399.155Z" fill="white"/>
<path d="M380.681 248.626C380.647 248.627 380.613 248.624 380.58 248.618L366.613 246.037C366.545 246.027 366.48 246.004 366.421 245.968C366.362 245.933 366.311 245.886 366.271 245.83C366.231 245.774 366.203 245.711 366.188 245.644C366.173 245.577 366.172 245.507 366.184 245.44C366.197 245.372 366.223 245.308 366.261 245.251C366.299 245.193 366.348 245.144 366.405 245.106C366.462 245.069 366.527 245.043 366.594 245.03C366.662 245.018 366.731 245.019 366.799 245.034L380.765 247.616C380.889 247.639 381 247.707 381.076 247.807C381.153 247.907 381.19 248.032 381.18 248.157C381.17 248.282 381.114 248.4 381.022 248.486C380.931 248.573 380.81 248.623 380.684 248.626H380.681Z" fill="white"/>
</g>
<path d="M400.434 233.981C400.309 233.98 400.185 233.969 400.063 233.947L393.249 232.706C392.98 232.657 392.724 232.555 392.495 232.407C392.265 232.259 392.068 232.067 391.913 231.842C391.758 231.617 391.649 231.364 391.593 231.097C391.536 230.83 391.533 230.554 391.583 230.286L392.728 223.058C392.827 222.522 393.133 222.046 393.58 221.734C394.027 221.421 394.579 221.296 395.118 221.386L401.952 222.553C402.223 222.599 402.482 222.698 402.714 222.845C402.947 222.992 403.148 223.184 403.305 223.409C403.462 223.634 403.573 223.889 403.632 224.157C403.69 224.426 403.694 224.703 403.644 224.973L402.478 232.281C402.389 232.758 402.136 233.188 401.763 233.499C401.389 233.809 400.919 233.98 400.434 233.981ZM394.77 222.161C394.474 222.162 394.188 222.266 393.96 222.454C393.733 222.643 393.577 222.905 393.522 223.195L392.377 230.423C392.344 230.588 392.345 230.757 392.379 230.922C392.413 231.086 392.479 231.242 392.574 231.381C392.668 231.52 392.79 231.638 392.93 231.73C393.071 231.822 393.229 231.884 393.394 231.914L400.208 233.156C400.537 233.213 400.876 233.14 401.152 232.95C401.427 232.761 401.617 232.471 401.681 232.143L402.848 224.83C402.879 224.664 402.877 224.495 402.842 224.33C402.807 224.166 402.739 224.01 402.643 223.872C402.547 223.734 402.424 223.616 402.282 223.526C402.14 223.436 401.981 223.375 401.816 223.346L394.981 222.179C394.912 222.167 394.841 222.161 394.77 222.161V222.161Z" fill="white"/>
<path d="M254.654 191.945L221.004 185.861C220.05 185.689 219.204 185.145 218.652 184.349C218.099 183.553 217.886 182.571 218.058 181.618L223.262 152.89L233.619 146L262.045 151.14C262.998 151.313 263.844 151.856 264.397 152.652C264.949 153.448 265.162 154.43 264.99 155.383L258.9 189.002C258.815 189.474 258.637 189.924 258.378 190.328C258.118 190.731 257.781 191.079 257.387 191.352C256.993 191.626 256.548 191.819 256.079 191.92C255.61 192.022 255.126 192.03 254.654 191.945Z" fill="#888888"/>
<path opacity="0.29" d="M233.619 146L223.262 152.89L232.107 154.642L233.619 146Z" fill="#FFFFFA"/>
<g opacity="0.88">
<path d="M257.284 172.343C257.25 172.344 257.216 172.341 257.182 172.335L225.695 166.517C225.562 166.493 225.444 166.416 225.367 166.305C225.291 166.194 225.262 166.056 225.286 165.923C225.311 165.791 225.387 165.673 225.498 165.596C225.61 165.52 225.747 165.49 225.88 165.515L257.368 171.333C257.492 171.356 257.602 171.424 257.679 171.524C257.756 171.624 257.792 171.749 257.782 171.874C257.772 172 257.716 172.117 257.625 172.203C257.533 172.29 257.413 172.34 257.287 172.343H257.284Z" fill="white"/>
<path d="M256.155 178.942C256.121 178.942 256.087 178.939 256.053 178.934L224.566 173.116C224.498 173.106 224.433 173.082 224.374 173.047C224.315 173.011 224.265 172.964 224.225 172.908C224.184 172.852 224.156 172.789 224.141 172.722C224.126 172.655 224.125 172.586 224.137 172.518C224.15 172.45 224.176 172.386 224.214 172.329C224.252 172.272 224.301 172.223 224.358 172.185C224.416 172.147 224.48 172.121 224.548 172.109C224.615 172.096 224.685 172.098 224.752 172.113L256.238 177.931C256.363 177.953 256.475 178.021 256.552 178.121C256.63 178.221 256.667 178.346 256.657 178.473C256.647 178.599 256.59 178.717 256.498 178.803C256.406 178.89 256.284 178.939 256.158 178.942H256.155Z" fill="white"/>
<path d="M237.681 181.626C237.647 181.627 237.613 181.624 237.58 181.618L223.613 179.037C223.545 179.027 223.48 179.004 223.421 178.968C223.362 178.933 223.311 178.886 223.271 178.83C223.231 178.774 223.203 178.711 223.188 178.644C223.173 178.577 223.172 178.507 223.184 178.44C223.197 178.372 223.223 178.308 223.261 178.251C223.299 178.193 223.348 178.144 223.405 178.106C223.462 178.069 223.527 178.043 223.594 178.03C223.662 178.018 223.731 178.019 223.799 178.034L237.765 180.616C237.889 180.639 238 180.707 238.076 180.807C238.153 180.907 238.19 181.032 238.18 181.157C238.17 181.282 238.114 181.4 238.022 181.486C237.931 181.573 237.81 181.623 237.684 181.626H237.681Z" fill="white"/>
</g>
<path d="M257.434 166.981C257.309 166.98 257.185 166.969 257.063 166.947L250.249 165.706C249.98 165.657 249.724 165.555 249.495 165.407C249.265 165.259 249.068 165.067 248.913 164.842C248.758 164.617 248.649 164.364 248.593 164.097C248.536 163.83 248.533 163.554 248.583 163.286L249.728 156.058C249.827 155.522 250.133 155.046 250.58 154.734C251.027 154.421 251.579 154.296 252.118 154.386L258.952 155.553C259.223 155.599 259.482 155.698 259.714 155.845C259.947 155.992 260.148 156.184 260.305 156.409C260.462 156.634 260.573 156.889 260.632 157.157C260.69 157.426 260.694 157.703 260.644 157.973L259.478 165.281C259.389 165.758 259.136 166.188 258.763 166.499C258.389 166.809 257.919 166.98 257.434 166.981ZM251.77 155.161C251.474 155.162 251.188 155.266 250.96 155.454C250.733 155.643 250.577 155.905 250.522 156.195L249.377 163.423C249.344 163.588 249.345 163.757 249.379 163.922C249.413 164.086 249.479 164.242 249.574 164.381C249.668 164.52 249.79 164.638 249.93 164.73C250.071 164.822 250.229 164.884 250.394 164.914L257.208 166.156C257.537 166.213 257.876 166.14 258.152 165.95C258.427 165.761 258.617 165.471 258.681 165.143L259.848 157.83C259.879 157.664 259.877 157.495 259.842 157.33C259.807 157.166 259.739 157.01 259.643 156.872C259.547 156.734 259.424 156.616 259.282 156.526C259.14 156.436 258.981 156.375 258.816 156.346L251.981 155.179C251.912 155.167 251.841 155.161 251.77 155.161V155.161Z" fill="white"/>
<path d="M234.843 381.557C234.772 381.557 234.701 381.557 234.629 381.546C234.301 381.517 233.983 381.419 233.695 381.26C233.407 381.1 233.155 380.883 232.956 380.621L225.797 371.215C225.417 370.715 225.251 370.084 225.336 369.461C225.421 368.839 225.75 368.275 226.25 367.895C226.751 367.515 227.382 367.349 228.005 367.434C228.628 367.519 229.192 367.847 229.573 368.348L235.161 375.691L256.607 356.132C256.837 355.922 257.106 355.759 257.399 355.654C257.691 355.548 258.002 355.501 258.313 355.515C258.624 355.529 258.929 355.604 259.211 355.736C259.493 355.868 259.747 356.055 259.956 356.285C260.166 356.514 260.329 356.783 260.435 357.076C260.541 357.368 260.588 357.679 260.574 357.99C260.559 358.3 260.484 358.605 260.352 358.887C260.22 359.169 260.033 359.422 259.803 359.631L236.44 380.935C236.004 381.334 235.434 381.556 234.843 381.557Z" fill="#888888"/>
<path d="M546.62 110.162L518.255 129.245C517.857 129.514 517.41 129.701 516.939 129.797C516.468 129.892 515.983 129.894 515.512 129.802C515.04 129.71 514.592 129.527 514.191 129.261C513.791 128.996 513.447 128.654 513.179 128.256L496.857 104.041L499.471 91.8871L523.435 75.7657C523.833 75.4975 524.281 75.3104 524.751 75.2149C525.222 75.1195 525.707 75.1177 526.178 75.2095C526.649 75.3014 527.098 75.4852 527.498 75.7503C527.899 76.0155 528.243 76.3569 528.511 76.7549L547.611 105.093C547.88 105.491 548.067 105.938 548.162 106.408C548.257 106.878 548.259 107.362 548.167 107.833C548.074 108.303 547.891 108.751 547.625 109.151C547.36 109.551 547.018 109.894 546.62 110.162V110.162Z" fill="#0CBC8B"/>
<path opacity="0.29" d="M499.475 91.8864L496.86 104.041L504.423 99.1345L499.475 91.8864Z" fill="#FFFFFA"/>
<g opacity="0.88">
<path d="M534.824 94.2794C534.799 94.3038 534.772 94.3256 534.743 94.3446L508.115 112.112C508.003 112.179 507.869 112.2 507.741 112.171C507.614 112.142 507.502 112.065 507.43 111.956C507.357 111.847 507.329 111.715 507.352 111.586C507.375 111.457 507.446 111.342 507.551 111.264L534.18 93.497C534.285 93.4278 534.412 93.3999 534.537 93.4187C534.661 93.4374 534.774 93.5016 534.854 93.5987C534.934 93.6958 534.975 93.8191 534.97 93.9447C534.964 94.0704 534.913 94.1896 534.824 94.2794H534.824Z" fill="white"/>
<path d="M538.62 99.7954C538.595 99.8197 538.568 99.8416 538.539 99.8606L511.911 117.628C511.798 117.695 511.664 117.716 511.537 117.687C511.409 117.658 511.297 117.581 511.225 117.472C511.152 117.363 511.125 117.231 511.147 117.102C511.17 116.973 511.241 116.858 511.347 116.78L537.975 99.013C538.08 98.9438 538.207 98.9159 538.332 98.9347C538.456 98.9534 538.57 99.0176 538.65 99.1147C538.73 99.2118 538.771 99.3351 538.765 99.4607C538.76 99.5864 538.708 99.7056 538.62 99.7954V99.7954Z" fill="white"/>
<path d="M527.253 114.59C527.228 114.615 527.201 114.637 527.172 114.655L515.366 122.536C515.31 122.577 515.247 122.607 515.18 122.622C515.112 122.638 515.043 122.64 514.975 122.628C514.907 122.616 514.842 122.591 514.784 122.553C514.726 122.515 514.676 122.466 514.638 122.409C514.6 122.351 514.574 122.286 514.561 122.219C514.549 122.151 514.55 122.081 514.566 122.014C514.581 121.946 514.61 121.883 514.65 121.827C514.691 121.771 514.743 121.724 514.802 121.689L526.613 113.808C526.719 113.739 526.846 113.711 526.97 113.73C527.095 113.748 527.208 113.812 527.288 113.91C527.368 114.007 527.409 114.13 527.403 114.256C527.398 114.381 527.346 114.501 527.258 114.59H527.253Z" fill="white"/>
</g>
<path d="M266.763 111.02L238.398 130.103C238 130.372 237.552 130.559 237.082 130.655C236.611 130.75 236.126 130.752 235.655 130.66C235.183 130.568 234.734 130.385 234.334 130.119C233.934 129.854 233.59 129.512 233.322 129.114L217 104.899L219.614 92.7452L243.578 76.6237C243.976 76.3555 244.423 76.1684 244.894 76.073C245.365 75.9775 245.85 75.9757 246.321 76.0676C246.792 76.1594 247.241 76.3432 247.641 76.6084C248.041 76.8735 248.385 77.2149 248.653 77.613L267.754 105.951C268.022 106.349 268.209 106.796 268.305 107.266C268.4 107.736 268.401 108.22 268.309 108.691C268.217 109.161 268.033 109.609 267.768 110.009C267.502 110.409 267.161 110.752 266.763 111.02V111.02Z" fill="#0CBC8B"/>
<path opacity="0.29" d="M219.617 92.7444L217.003 104.899L224.566 99.9926L219.617 92.7444Z" fill="#FFFFFA"/>
<g opacity="0.88">
<path d="M254.966 95.1374C254.942 95.1618 254.915 95.1836 254.886 95.2026L228.258 112.97C228.146 113.037 228.012 113.058 227.884 113.029C227.756 113 227.645 112.923 227.572 112.814C227.5 112.705 227.472 112.573 227.495 112.444C227.517 112.315 227.589 112.2 227.694 112.122L254.323 94.355C254.428 94.2858 254.555 94.2579 254.679 94.2767C254.804 94.2955 254.917 94.3596 254.997 94.4567C255.077 94.5538 255.118 94.6771 255.113 94.8028C255.107 94.9284 255.055 95.0476 254.967 95.1374H254.966Z" fill="white"/>
<path d="M258.763 100.653C258.738 100.678 258.711 100.7 258.682 100.719L232.053 118.486C231.941 118.553 231.807 118.574 231.679 118.545C231.552 118.516 231.44 118.439 231.368 118.33C231.295 118.221 231.268 118.089 231.29 117.96C231.313 117.831 231.384 117.716 231.489 117.638L258.118 99.871C258.223 99.8018 258.35 99.7739 258.475 99.7927C258.599 99.8115 258.712 99.8756 258.792 99.9727C258.872 100.07 258.914 100.193 258.908 100.319C258.903 100.444 258.851 100.564 258.763 100.653V100.653Z" fill="white"/>
<path d="M247.396 115.448C247.371 115.473 247.344 115.495 247.315 115.514L235.509 123.394C235.453 123.435 235.39 123.465 235.323 123.48C235.255 123.496 235.185 123.498 235.117 123.486C235.049 123.474 234.984 123.449 234.927 123.411C234.869 123.373 234.819 123.324 234.781 123.267C234.743 123.209 234.717 123.144 234.704 123.077C234.692 123.009 234.693 122.939 234.708 122.872C234.724 122.804 234.753 122.741 234.793 122.685C234.834 122.629 234.885 122.582 234.945 122.547L246.756 114.666C246.861 114.597 246.988 114.569 247.113 114.588C247.237 114.606 247.35 114.671 247.431 114.768C247.511 114.865 247.552 114.988 247.546 115.114C247.541 115.239 247.489 115.359 247.401 115.448H247.396Z" fill="white"/>
</g>
<path d="M267.763 251.02L239.398 270.103C239 270.372 238.552 270.559 238.082 270.655C237.611 270.75 237.126 270.752 236.655 270.66C236.183 270.568 235.734 270.385 235.334 270.119C234.934 269.854 234.59 269.512 234.322 269.114L218 244.899L220.614 232.745L244.578 216.624C244.976 216.356 245.423 216.168 245.894 216.073C246.365 215.978 246.85 215.976 247.321 216.068C247.792 216.159 248.241 216.343 248.641 216.608C249.041 216.874 249.385 217.215 249.653 217.613L268.754 245.951C269.022 246.349 269.209 246.796 269.305 247.266C269.4 247.736 269.401 248.22 269.309 248.691C269.217 249.161 269.033 249.609 268.768 250.009C268.502 250.409 268.161 250.752 267.763 251.02V251.02Z" fill="#0CBC8B"/>
<path opacity="0.29" d="M220.617 232.744L218.003 244.899L225.566 239.993L220.617 232.744Z" fill="#FFFFFA"/>
<g opacity="0.88">
<path d="M255.966 235.137C255.942 235.162 255.915 235.184 255.886 235.203L229.258 252.97C229.146 253.037 229.012 253.058 228.884 253.029C228.756 253 228.645 252.923 228.572 252.814C228.5 252.705 228.472 252.573 228.495 252.444C228.517 252.315 228.589 252.2 228.694 252.122L255.323 234.355C255.428 234.286 255.555 234.258 255.679 234.277C255.804 234.295 255.917 234.36 255.997 234.457C256.077 234.554 256.118 234.677 256.113 234.803C256.107 234.928 256.055 235.048 255.967 235.137H255.966Z" fill="white"/>
<path d="M259.763 240.653C259.738 240.678 259.711 240.7 259.682 240.719L233.053 258.486C232.941 258.553 232.807 258.574 232.679 258.545C232.552 258.516 232.44 258.439 232.368 258.33C232.295 258.221 232.268 258.089 232.29 257.96C232.313 257.831 232.384 257.716 232.489 257.638L259.118 239.871C259.223 239.802 259.35 239.774 259.475 239.793C259.599 239.811 259.712 239.876 259.792 239.973C259.872 240.07 259.914 240.193 259.908 240.319C259.903 240.444 259.851 240.564 259.763 240.653V240.653Z" fill="white"/>
<path d="M248.396 255.448C248.371 255.473 248.344 255.495 248.315 255.514L236.509 263.394C236.453 263.435 236.39 263.465 236.323 263.48C236.255 263.496 236.185 263.498 236.117 263.486C236.049 263.474 235.984 263.449 235.927 263.411C235.869 263.373 235.819 263.324 235.781 263.267C235.743 263.209 235.717 263.144 235.704 263.077C235.692 263.009 235.693 262.939 235.708 262.872C235.724 262.804 235.753 262.741 235.793 262.685C235.834 262.629 235.885 262.582 235.945 262.547L247.756 254.666C247.861 254.597 247.988 254.569 248.113 254.588C248.237 254.606 248.35 254.671 248.431 254.768C248.511 254.865 248.552 254.988 248.546 255.114C248.541 255.239 248.489 255.359 248.401 255.448H248.396Z" fill="white"/>
</g>
<path d="M404.763 176.02L376.398 195.103C376 195.372 375.552 195.559 375.082 195.655C374.611 195.75 374.126 195.752 373.655 195.66C373.183 195.568 372.734 195.385 372.334 195.119C371.934 194.854 371.59 194.512 371.322 194.114L355 169.899L357.614 157.745L381.578 141.624C381.976 141.356 382.423 141.168 382.894 141.073C383.365 140.978 383.85 140.976 384.321 141.068C384.792 141.159 385.241 141.343 385.641 141.608C386.041 141.874 386.385 142.215 386.653 142.613L405.754 170.951C406.022 171.349 406.209 171.796 406.305 172.266C406.4 172.736 406.401 173.22 406.309 173.691C406.217 174.161 406.033 174.609 405.768 175.009C405.502 175.409 405.161 175.752 404.763 176.02V176.02Z" fill="#0CBC8B"/>
<path opacity="0.29" d="M357.617 157.744L355.003 169.899L362.566 164.993L357.617 157.744Z" fill="#FFFFFA"/>
<g opacity="0.88">
<path d="M392.966 160.137C392.942 160.162 392.915 160.184 392.886 160.203L366.258 177.97C366.146 178.037 366.012 178.058 365.884 178.029C365.756 178 365.645 177.923 365.572 177.814C365.5 177.705 365.472 177.573 365.495 177.444C365.517 177.315 365.589 177.2 365.694 177.122L392.323 159.355C392.428 159.286 392.555 159.258 392.679 159.277C392.804 159.295 392.917 159.36 392.997 159.457C393.077 159.554 393.118 159.677 393.113 159.803C393.107 159.928 393.055 160.048 392.967 160.137H392.966Z" fill="white"/>
<path d="M396.763 165.653C396.738 165.678 396.711 165.7 396.682 165.719L370.053 183.486C369.941 183.553 369.807 183.574 369.679 183.545C369.552 183.516 369.44 183.439 369.368 183.33C369.295 183.221 369.268 183.089 369.29 182.96C369.313 182.831 369.384 182.716 369.489 182.638L396.118 164.871C396.223 164.802 396.35 164.774 396.475 164.793C396.599 164.811 396.712 164.876 396.792 164.973C396.872 165.07 396.914 165.193 396.908 165.319C396.903 165.444 396.851 165.564 396.763 165.653V165.653Z" fill="white"/>
<path d="M385.396 180.448C385.371 180.473 385.344 180.495 385.315 180.514L373.509 188.394C373.453 188.435 373.39 188.465 373.323 188.48C373.255 188.496 373.185 188.498 373.117 188.486C373.049 188.474 372.984 188.449 372.927 188.411C372.869 188.373 372.819 188.324 372.781 188.267C372.743 188.209 372.717 188.144 372.704 188.077C372.692 188.009 372.693 187.939 372.708 187.872C372.724 187.804 372.753 187.741 372.793 187.685C372.834 187.629 372.885 187.582 372.945 187.547L384.756 179.666C384.861 179.597 384.988 179.569 385.113 179.588C385.237 179.606 385.35 179.671 385.431 179.768C385.511 179.865 385.552 179.988 385.546 180.114C385.541 180.239 385.489 180.359 385.401 180.448H385.396Z" fill="white"/>
</g>
<path d="M473.763 315.02L445.398 334.103C445 334.372 444.552 334.559 444.082 334.655C443.611 334.75 443.126 334.752 442.655 334.66C442.183 334.568 441.734 334.385 441.334 334.119C440.934 333.854 440.59 333.512 440.322 333.114L424 308.899L426.614 296.745L450.578 280.624C450.976 280.356 451.423 280.168 451.894 280.073C452.365 279.978 452.85 279.976 453.321 280.068C453.792 280.159 454.241 280.343 454.641 280.608C455.041 280.874 455.385 281.215 455.653 281.613L474.754 309.951C475.022 310.349 475.209 310.796 475.305 311.266C475.4 311.736 475.401 312.22 475.309 312.691C475.217 313.161 475.033 313.609 474.768 314.009C474.502 314.409 474.161 314.752 473.763 315.02V315.02Z" fill="#0CBC8B"/>
<path opacity="0.29" d="M426.617 296.744L424.003 308.899L431.566 303.993L426.617 296.744Z" fill="#FFFFFA"/>
<g opacity="0.88">
<path d="M461.966 299.137C461.942 299.162 461.915 299.184 461.886 299.203L435.258 316.97C435.146 317.037 435.012 317.058 434.884 317.029C434.756 317 434.645 316.923 434.572 316.814C434.5 316.705 434.472 316.573 434.495 316.444C434.517 316.315 434.589 316.2 434.694 316.122L461.323 298.355C461.428 298.286 461.555 298.258 461.679 298.277C461.804 298.295 461.917 298.36 461.997 298.457C462.077 298.554 462.118 298.677 462.113 298.803C462.107 298.928 462.055 299.048 461.967 299.137H461.966Z" fill="white"/>
<path d="M465.763 304.653C465.738 304.678 465.711 304.7 465.682 304.719L439.053 322.486C438.941 322.553 438.807 322.574 438.679 322.545C438.552 322.516 438.44 322.439 438.368 322.33C438.295 322.221 438.268 322.089 438.29 321.96C438.313 321.831 438.384 321.716 438.489 321.638L465.118 303.871C465.223 303.802 465.35 303.774 465.475 303.793C465.599 303.811 465.712 303.876 465.792 303.973C465.872 304.07 465.914 304.193 465.908 304.319C465.903 304.444 465.851 304.564 465.763 304.653V304.653Z" fill="white"/>
<path d="M454.396 319.448C454.371 319.473 454.344 319.495 454.315 319.514L442.509 327.394C442.453 327.435 442.39 327.465 442.323 327.48C442.255 327.496 442.185 327.498 442.117 327.486C442.049 327.474 441.984 327.449 441.927 327.411C441.869 327.373 441.819 327.324 441.781 327.267C441.743 327.209 441.717 327.144 441.704 327.077C441.692 327.009 441.693 326.939 441.708 326.872C441.724 326.804 441.753 326.741 441.793 326.685C441.834 326.629 441.885 326.582 441.945 326.547L453.756 318.666C453.861 318.597 453.988 318.569 454.113 318.588C454.237 318.606 454.35 318.671 454.431 318.768C454.511 318.865 454.552 318.988 454.546 319.114C454.541 319.239 454.489 319.359 454.401 319.448H454.396Z" fill="white"/>
</g>
<path d="M199.763 321.02L171.398 340.103C171 340.372 170.552 340.559 170.082 340.655C169.611 340.75 169.126 340.752 168.655 340.66C168.183 340.568 167.734 340.385 167.334 340.119C166.934 339.854 166.59 339.512 166.322 339.114L150 314.899L152.614 302.745L176.578 286.624C176.976 286.356 177.423 286.168 177.894 286.073C178.365 285.978 178.85 285.976 179.321 286.068C179.792 286.159 180.241 286.343 180.641 286.608C181.041 286.874 181.385 287.215 181.653 287.613L200.754 315.951C201.022 316.349 201.209 316.796 201.305 317.266C201.4 317.736 201.401 318.22 201.309 318.691C201.217 319.161 201.033 319.609 200.768 320.009C200.502 320.409 200.161 320.752 199.763 321.02V321.02Z" fill="#0CBC8B"/>
<path opacity="0.29" d="M152.617 302.744L150.003 314.899L157.566 309.993L152.617 302.744Z" fill="#FFFFFA"/>
<g opacity="0.88">
<path d="M187.966 305.137C187.942 305.162 187.915 305.184 187.886 305.203L161.258 322.97C161.146 323.037 161.012 323.058 160.884 323.029C160.756 323 160.645 322.923 160.572 322.814C160.5 322.705 160.472 322.573 160.495 322.444C160.517 322.315 160.589 322.2 160.694 322.122L187.323 304.355C187.428 304.286 187.555 304.258 187.679 304.277C187.804 304.295 187.917 304.36 187.997 304.457C188.077 304.554 188.118 304.677 188.113 304.803C188.107 304.928 188.055 305.048 187.967 305.137H187.966Z" fill="white"/>
<path d="M191.763 310.653C191.738 310.678 191.711 310.7 191.682 310.719L165.053 328.486C164.941 328.553 164.807 328.574 164.679 328.545C164.552 328.516 164.44 328.439 164.368 328.33C164.295 328.221 164.268 328.089 164.29 327.96C164.313 327.831 164.384 327.716 164.489 327.638L191.118 309.871C191.223 309.802 191.35 309.774 191.475 309.793C191.599 309.811 191.712 309.876 191.792 309.973C191.872 310.07 191.914 310.193 191.908 310.319C191.903 310.444 191.851 310.564 191.763 310.653V310.653Z" fill="white"/>
<path d="M180.396 325.448C180.371 325.473 180.344 325.495 180.315 325.514L168.509 333.394C168.453 333.435 168.39 333.465 168.323 333.48C168.255 333.496 168.185 333.498 168.117 333.486C168.049 333.474 167.984 333.449 167.927 333.411C167.869 333.373 167.819 333.324 167.781 333.267C167.743 333.209 167.717 333.144 167.704 333.077C167.692 333.009 167.693 332.939 167.708 332.872C167.724 332.804 167.753 332.741 167.793 332.685C167.834 332.629 167.885 332.582 167.945 332.547L179.756 324.666C179.861 324.597 179.988 324.569 180.113 324.588C180.237 324.606 180.35 324.671 180.431 324.768C180.511 324.865 180.552 324.988 180.546 325.114C180.541 325.239 180.489 325.359 180.401 325.448H180.396Z" fill="white"/>
</g>
<path d="M553.116 694H29.1148C28.9653 694 28.8218 693.941 28.7161 693.835C28.6103 693.729 28.5509 693.586 28.5509 693.437C28.5509 693.287 28.6103 693.144 28.7161 693.038C28.8218 692.933 28.9653 692.873 29.1148 692.873H553.116C553.266 692.873 553.409 692.933 553.515 693.038C553.621 693.144 553.68 693.287 553.68 693.437C553.68 693.586 553.621 693.729 553.515 693.835C553.409 693.941 553.266 694 553.116 694Z" fill="#292A2E"/>
<path d="M53.8017 530.98L52.4106 531.133L69.5855 687.939L70.9766 687.787L53.8017 530.98Z" fill="#292A2E"/>
<path d="M98.285 599.437L89.8357 682.949L91.228 683.09L99.6773 599.578L98.285 599.437Z" fill="#292A2E"/>
<path d="M112.815 672.854H50.1202V693.182H112.815V672.854Z" fill="#292A2E"/>
<path opacity="0.2" d="M112.815 672.854H50.1202V693.182H112.815V672.854Z" fill="white"/>
<path d="M150.611 635.425C162.487 619.654 156.826 595.376 137.965 581.198C119.104 567.02 94.1865 568.311 82.3097 584.081C70.433 599.852 76.0947 624.13 94.9555 638.308C113.816 652.486 138.734 651.195 150.611 635.425Z" fill="#0CBC8B"/>
<path opacity="0.2" d="M150.611 635.425C162.487 619.654 156.826 595.376 137.965 581.198C119.104 567.02 94.1865 568.311 82.3097 584.081C70.433 599.852 76.0947 624.13 94.9555 638.308C113.816 652.486 138.734 651.195 150.611 635.425Z" fill="white"/>
<path opacity="0.5" d="M150.608 635.427C149.811 636.491 148.94 637.498 148.004 638.442C134.93 646.788 115.632 645.474 100.324 633.964C81.4644 619.789 75.804 595.51 87.6823 579.74C88.4809 578.679 89.3489 577.671 90.2805 576.725C103.361 568.374 122.652 569.694 137.967 581.197C156.825 595.379 162.486 619.657 150.608 635.427Z" fill="white"/>
<path d="M63.1135 575.592C81.7977 561.182 86.8759 536.47 74.456 520.394C62.036 504.319 36.8211 502.969 18.1368 517.378C-0.547398 531.788 -5.62561 556.501 6.79433 572.576C19.2143 588.651 44.4292 590.001 63.1135 575.592Z" fill="#0CBC8B"/>
<path opacity="0.2" d="M57.2002 571.457C42.7302 582.624 24.3407 584.325 11.0106 577.056C9.46786 575.699 8.05881 574.197 6.80279 572.571C-5.62335 556.501 -0.545425 531.784 18.1381 517.378C32.6081 506.218 50.9976 504.51 64.3212 511.773C65.8671 513.131 67.2782 514.635 68.5347 516.264C80.9576 532.335 75.8797 557.051 57.2002 571.457Z" fill="white"/>
</g>
<defs>
<clipPath id="clip0_26_317">
<rect width="575" height="694" fill="white"/>
</clipPath>
</defs>
</svg>
