<svg width="269" height="31" viewBox="0 0 269 31" fill="none" xmlns="http://www.w3.org/2000/svg">
<path d="M28 1.24C28 1.48 27.9333 1.64 27.8 1.72C27.6667 1.77333 27.4933 1.8 27.28 1.8C27.1733 1.8 27.0667 1.8 26.96 1.8C26.8533 1.77333 26.7467 1.76 26.64 1.76C26.4533 1.76 26.2133 1.77333 25.92 1.8C25.6267 1.82666 25.4 1.88 25.24 1.96C25.0533 2.04 24.8667 2.2 24.68 2.44C24.4933 2.65333 24.3333 2.86666 24.2 3.08C22.84 5.4 21.4933 7.73333 20.16 10.08C18.8267 12.4 17.48 14.72 16.12 17.04C16.12 17.4667 16.1067 17.8933 16.08 18.32C16.08 18.7467 16.08 19.1733 16.08 19.6V26.72C16.08 27.28 16.1467 27.8133 16.28 28.32C16.4133 28.8267 16.84 29.08 17.56 29.08C17.96 29.08 18.3467 29.0667 18.72 29.04C19.12 28.9867 19.5067 28.96 19.88 28.96C20.0933 28.96 20.2 29.1067 20.2 29.4C20.2 29.5867 20.1733 29.7467 20.12 29.88C20.0667 29.9867 19.92 30.04 19.68 30.04C18.9867 30.04 18.2933 30.0267 17.6 30C16.9067 29.9733 16.2133 29.96 15.52 29.96C14.32 29.96 13.12 29.9733 11.92 30C10.72 30.0533 9.53333 30.08 8.36 30.08C7.98667 30.08 7.8 29.88 7.8 29.48C7.8 29.3467 7.86667 29.24 8 29.16C8.16 29.08 8.29333 29.04 8.4 29.04C8.69333 29.04 8.98667 29.0533 9.28 29.08C9.57333 29.08 9.86667 29.08 10.16 29.08C10.5333 29.08 10.92 29.0267 11.32 28.92C11.72 28.7867 11.92 28.4933 11.92 28.04V21C11.92 19.8267 11.8133 18.7733 11.6 17.84C11.3867 16.9067 11.0133 15.92 10.48 14.88C10.0533 13.9733 9.57333 13.0133 9.04 12C8.50667 10.96 7.97333 9.94667 7.44 8.96C6.90667 7.97333 6.4 7.08 5.92 6.28C5.46667 5.45333 5.09333 4.8 4.8 4.32C4.66667 4.05333 4.50667 3.8 4.32 3.56C4.16 3.32 3.98667 3.08 3.8 2.84C3.37333 2.36 2.81333 2.12 2.12 2.12C1.88 2.12 1.62667 2.13333 1.36 2.16C1.12 2.18666 0.866667 2.2 0.6 2.2C0.28 2.2 0.12 2.04 0.12 1.72C0.12 1.50667 0.146667 1.36 0.2 1.28C0.28 1.2 0.44 1.14667 0.68 1.12C0.946667 1.09333 1.22667 1.06666 1.52 1.04C1.81333 1.01333 2.09333 0.986666 2.36 0.96C2.81333 0.906665 3.30667 0.853332 3.84 0.799999C4.37333 0.719999 4.81333 0.666665 5.16 0.639999C5.4 0.586665 5.65333 0.546664 5.92 0.519998C6.21333 0.493332 6.46667 0.479999 6.68 0.479999C6.94667 0.479999 7.14667 0.533332 7.28 0.639999C7.41333 0.746666 7.53333 0.919999 7.64 1.16C7.8 1.42667 7.94667 1.68 8.08 1.92C8.21333 2.16 8.34667 2.41333 8.48 2.68C9.65333 4.86667 10.7867 7.09333 11.88 9.36C12.9733 11.6 14.04 13.8533 15.08 16.12C15.2667 15.8267 15.56 15.32 15.96 14.6C16.3867 13.88 16.88 13.0267 17.44 12.04C18 11.0533 18.5733 10.04 19.16 9C19.7467 7.93333 20.2933 6.92 20.8 5.96C21.3067 5 21.7067 4.18667 22 3.52C22.32 2.85333 22.48 2.41333 22.48 2.2C22.48 1.96 22.4 1.81333 22.24 1.76C22.08 1.68 21.8933 1.64 21.68 1.64C21.3333 1.64 20.9867 1.65333 20.64 1.68C20.32 1.70667 19.9867 1.72 19.64 1.72C19.48 1.72 19.3733 1.66667 19.32 1.56C19.2667 1.42667 19.24 1.29333 19.24 1.16C19.24 0.919999 19.3067 0.786666 19.44 0.76C19.5733 0.706666 19.7333 0.679998 19.92 0.679998C20.6133 0.679998 21.32 0.693332 22.04 0.719998C22.76 0.746666 23.4667 0.76 24.16 0.76C24.72 0.76 25.28 0.746666 25.84 0.719998C26.4 0.693332 26.9733 0.679998 27.56 0.679998C27.6933 0.679998 27.8 0.746665 27.88 0.879998C27.96 0.986665 28 1.10667 28 1.24ZM46.9344 18.12C46.081 15.72 45.2277 13.32 44.3744 10.92C43.521 8.49333 42.6677 6.08 41.8144 3.68C40.9877 6.08 40.1477 8.48 39.2944 10.88C38.441 13.28 37.601 15.6933 36.7744 18.12H46.9344ZM58.2144 29.4C58.2144 29.56 58.1877 29.7067 58.1344 29.84C58.1077 29.9467 58.0144 30 57.8544 30C57.6677 30 57.201 29.9867 56.4544 29.96C55.7344 29.9333 55.1077 29.92 54.5744 29.92C53.7477 29.92 52.921 29.92 52.0944 29.92C51.2944 29.92 50.481 29.9467 49.6544 30C49.2277 30.0267 48.7877 30.04 48.3344 30.04C47.9077 30.0667 47.481 30.08 47.0544 30.08C46.921 30.08 46.8277 30.04 46.7744 29.96C46.7477 29.8533 46.7344 29.7467 46.7344 29.64L46.7744 29.32C46.7744 29.24 46.801 29.16 46.8544 29.08C46.9077 28.9733 46.9877 28.92 47.0944 28.92H49.0544C49.2944 28.92 49.561 28.8667 49.8544 28.76C50.1744 28.6533 50.3344 28.4533 50.3344 28.16C50.3344 28.08 50.241 27.7733 50.0544 27.24C49.8677 26.68 49.641 26.0133 49.3744 25.24C49.1077 24.44 48.8277 23.64 48.5344 22.84C48.241 22.04 47.9877 21.3333 47.7744 20.72C47.561 20.08 47.4144 19.6667 47.3344 19.48H36.4144C36.3344 19.72 36.1744 20.16 35.9344 20.8C35.6944 21.4133 35.4277 22.12 35.1344 22.92C34.8677 23.72 34.5877 24.5067 34.2944 25.28C34.0277 26.0533 33.801 26.72 33.6144 27.28C33.4544 27.8133 33.3744 28.1467 33.3744 28.28C33.3744 28.6533 33.5744 28.8933 33.9744 29C34.3744 29.1067 34.7077 29.16 34.9744 29.16C35.241 29.16 35.481 29.16 35.6944 29.16C35.9077 29.16 36.081 29.1467 36.2144 29.12C36.2677 29.12 36.361 29.12 36.4944 29.12C36.6544 29.0933 36.7477 29.08 36.7744 29.08C36.9344 29.08 37.0277 29.1733 37.0544 29.36C37.1077 29.5467 37.121 29.6933 37.0944 29.8C37.0677 29.9067 37.001 29.9733 36.8944 30C36.8144 30 36.721 30 36.6144 30C35.841 30 35.0544 29.9867 34.2544 29.96C33.4544 29.9333 32.6677 29.92 31.8944 29.92C31.3077 29.92 30.7344 29.9333 30.1744 29.96C29.6144 29.9867 29.041 30 28.4544 30C28.2144 30 28.0944 29.8667 28.0944 29.6C28.0944 29.2267 28.281 29.04 28.6544 29.04C28.7877 29.04 28.9477 29.0533 29.1344 29.08C29.321 29.08 29.521 29.08 29.7344 29.08C30.0277 29.08 30.321 29 30.6144 28.84C30.9344 28.6533 31.201 28.3333 31.4144 27.88C31.5477 27.64 31.8144 27 32.2144 25.96C32.6144 24.92 33.1077 23.6267 33.6944 22.08C34.281 20.5067 34.8944 18.8267 35.5344 17.04C36.201 15.2267 36.8544 13.4267 37.4944 11.64C38.1344 9.85333 38.7077 8.2 39.2144 6.68C39.7477 5.16 40.1744 3.90666 40.4944 2.92C40.8144 1.90667 40.9744 1.30666 40.9744 1.12C40.9744 1.06666 40.9344 0.999998 40.8544 0.919998C40.7744 0.813332 40.7344 0.746666 40.7344 0.719998C40.7344 0.613331 40.7744 0.546664 40.8544 0.519998C41.121 0.466665 41.401 0.426666 41.6944 0.4C41.9877 0.373332 42.2677 0.346665 42.5344 0.319998C42.881 0.266666 43.2277 0.226665 43.5744 0.199997C43.921 0.146665 44.2677 0.106665 44.6144 0.079999L54.9744 28.08C55.081 28.3467 55.281 28.56 55.5744 28.72C55.8944 28.8533 56.1877 28.92 56.4544 28.92C56.6944 28.92 56.9344 28.92 57.1744 28.92C57.441 28.8933 57.7077 28.88 57.9744 28.88C58.081 28.88 58.1477 28.9467 58.1744 29.08C58.201 29.2133 58.2144 29.32 58.2144 29.4ZM87.5909 29.36C87.5909 29.4667 87.5643 29.5867 87.5109 29.72C87.4576 29.8533 87.3643 29.92 87.2309 29.92C86.4043 29.92 85.5643 29.9333 84.7109 29.96C83.8843 29.96 83.0443 29.96 82.1909 29.96C81.7643 29.96 81.3509 29.9467 80.9509 29.92C80.5776 29.8667 80.2309 29.6933 79.9109 29.4C79.8043 29.32 79.7109 29.2267 79.6309 29.12C79.5509 29.0133 79.4709 28.9067 79.3909 28.8C76.0843 24.1867 72.6176 19.64 68.9909 15.16L67.5909 16.32V27.88C67.5909 28.3333 67.8043 28.6267 68.2309 28.76C68.6576 28.8933 69.1376 28.96 69.6709 28.96C70.2043 28.9333 70.6043 28.92 70.8709 28.92C71.2176 28.92 71.3909 29.0933 71.3909 29.44C71.3909 29.7867 71.2443 29.96 70.9509 29.96C70.0443 29.96 69.1509 29.9333 68.2709 29.88C67.3909 29.8267 66.4976 29.8 65.5909 29.8C64.7109 29.8 63.8176 29.8133 62.9109 29.84C62.0309 29.8667 61.1509 29.9067 60.2709 29.96C60.0576 29.8267 59.9509 29.64 59.9509 29.4C59.9509 29.2133 59.9643 29.0933 59.9909 29.04C60.0443 28.9867 60.1643 28.9467 60.3509 28.92C60.5109 28.8933 60.6709 28.8933 60.8309 28.92C60.9909 28.92 61.1509 28.92 61.3109 28.92C61.5509 28.92 61.8443 28.9067 62.1909 28.88C62.5643 28.8533 62.8843 28.7733 63.1509 28.64C63.4443 28.48 63.5909 28.2267 63.5909 27.88V2.76C63.5909 2.49333 63.4043 2.25333 63.0309 2.04C62.6843 1.82667 62.4043 1.72 62.1909 1.72H61.3109C61.1243 1.72 60.9509 1.73333 60.7909 1.76C60.6309 1.76 60.4576 1.76 60.2709 1.76C60.0043 1.76 59.8576 1.68 59.8309 1.52C59.8043 1.36 59.7909 1.18666 59.7909 0.999999C59.7909 0.786665 59.8843 0.679998 60.0709 0.679998C61.0043 0.679998 61.9243 0.706666 62.8309 0.76C63.7643 0.813332 64.6843 0.839999 65.5909 0.839999C66.4443 0.839999 67.2843 0.813332 68.1109 0.76C68.9643 0.706666 69.8043 0.679998 70.6309 0.679998C70.9509 0.679998 71.1109 0.866665 71.1109 1.24C71.1109 1.34667 71.0709 1.46667 70.9909 1.6C70.9376 1.70667 70.8443 1.76 70.7109 1.76C70.4176 1.76 70.1243 1.76 69.8309 1.76C69.5376 1.73333 69.2443 1.72 68.9509 1.72C68.6576 1.72 68.3509 1.81333 68.0309 2C67.7376 2.18667 67.5909 2.44 67.5909 2.76V8.84C67.5909 9.88 67.5909 10.92 67.5909 11.96C67.5909 13 67.5776 14.04 67.5509 15.08C70.2176 12.5733 72.8309 10 75.3909 7.36C76.3509 6.34667 77.2843 5.34667 78.1909 4.36C79.0976 3.34667 79.9643 2.29333 80.7909 1.2C80.9776 0.933332 81.1909 0.799999 81.4309 0.799999C81.8309 0.799999 82.2309 0.813332 82.6309 0.839999C83.0309 0.839999 83.4309 0.839999 83.8309 0.839999C84.1776 0.839999 84.5109 0.839999 84.8309 0.839999C85.1776 0.813332 85.5243 0.799999 85.8709 0.799999C86.0043 0.799999 86.0843 0.866666 86.1109 0.999999C86.1643 1.10667 86.1909 1.21333 86.1909 1.32C86.1909 1.42666 86.1509 1.54667 86.0709 1.68C86.0176 1.78667 85.9243 1.84 85.7909 1.84C85.0443 1.84 84.3376 1.94666 83.6709 2.16C83.0043 2.37333 82.3909 2.74667 81.8309 3.28L71.9109 12.72C73.9109 15.28 75.9376 17.84 77.9909 20.4C80.0709 22.9333 82.2043 25.4133 84.3909 27.84C84.7909 28.2667 85.2309 28.5333 85.7109 28.64C86.2176 28.7467 86.6576 28.8267 87.0309 28.88C87.4043 28.9333 87.5909 29.0933 87.5909 29.36ZM113.778 15.28C113.778 13.7333 113.605 12.16 113.258 10.56C112.938 8.96 112.405 7.48 111.658 6.12C110.911 4.76 109.911 3.66667 108.658 2.84C107.405 1.98667 105.858 1.56 104.018 1.56C102.231 1.56 100.711 2 99.4581 2.88C98.2048 3.76 97.1915 4.90667 96.4181 6.32C95.6448 7.70667 95.0715 9.21333 94.6981 10.84C94.3515 12.44 94.1781 13.9867 94.1781 15.48C94.1781 17.0533 94.3381 18.64 94.6581 20.24C94.9781 21.8133 95.5115 23.2667 96.2581 24.6C97.0048 25.9067 98.0048 26.96 99.2581 27.76C100.538 28.56 102.125 28.96 104.018 28.96C105.911 28.96 107.485 28.5467 108.738 27.72C109.991 26.8933 110.978 25.8133 111.698 24.48C112.445 23.12 112.978 21.64 113.298 20.04C113.618 18.44 113.778 16.8533 113.778 15.28ZM118.138 15.16C118.138 18.12 117.591 20.7333 116.498 23C115.431 25.24 113.845 26.9867 111.738 28.24C109.658 29.4933 107.085 30.12 104.018 30.12C101.031 30.12 98.4715 29.52 96.3381 28.32C94.2315 27.0933 92.6181 25.3867 91.4981 23.2C90.3781 20.9867 89.8181 18.4133 89.8181 15.48C89.8181 13.4267 90.1515 11.4933 90.8181 9.68C91.4848 7.86667 92.4448 6.26667 93.6981 4.88C94.9515 3.49333 96.4448 2.41333 98.1781 1.64C99.9381 0.839999 101.885 0.439999 104.018 0.439999C107.005 0.439999 109.538 1.06667 111.618 2.32C113.725 3.54667 115.338 5.26667 116.458 7.48C117.578 9.66667 118.138 12.2267 118.138 15.16ZM142.391 21.84C142.391 19.7067 141.951 18.0533 141.071 16.88C140.217 15.7067 138.657 15.0933 136.391 15.04C135.964 15.04 135.537 15.04 135.111 15.04C134.684 15.0133 134.257 15 133.831 15C133.164 15 132.484 15.0133 131.791 15.04C131.124 15.0667 130.444 15.08 129.751 15.08V27.6C129.751 28.08 129.884 28.4267 130.151 28.64C130.444 28.8533 130.791 28.9867 131.191 29.04C131.591 29.0667 131.964 29.08 132.311 29.08C132.764 29.08 133.217 29.08 133.671 29.08C134.151 29.0533 134.617 29.0267 135.071 29C137.284 28.8667 139.057 28.2267 140.391 27.08C141.724 25.9333 142.391 24.1867 142.391 21.84ZM140.351 7.64C140.351 5.58667 139.791 4.12 138.671 3.24C137.551 2.33333 136.004 1.88 134.031 1.88C133.311 1.88 132.591 1.89333 131.871 1.92C131.177 1.92 130.471 1.94667 129.751 2V13.96C130.124 13.96 130.484 13.9733 130.831 14C131.177 14 131.524 14 131.871 14C132.537 14 133.271 13.9733 134.071 13.92C134.897 13.8667 135.684 13.7333 136.431 13.52C137.204 13.3067 137.844 12.96 138.351 12.48C138.964 11.8667 139.444 11.1333 139.791 10.28C140.164 9.4 140.351 8.52 140.351 7.64ZM146.671 21.2C146.671 23.0667 146.231 24.6933 145.351 26.08C144.471 27.44 143.151 28.4667 141.391 29.16C140.457 29.5333 139.431 29.7867 138.311 29.92C137.217 30.0267 136.164 30.08 135.151 30.08C134.964 30.08 134.764 30.08 134.551 30.08C134.364 30.08 134.177 30.0667 133.991 30.04C132.711 29.9867 131.431 29.9467 130.151 29.92C128.897 29.8667 127.631 29.84 126.351 29.84C125.631 29.84 124.911 29.8933 124.191 30C123.497 30.08 122.791 30.12 122.071 30.12C121.857 30.12 121.737 30.04 121.711 29.88C121.684 29.6933 121.671 29.52 121.671 29.36C121.671 29.0667 121.791 28.92 122.031 28.92C122.404 28.92 122.791 28.92 123.191 28.92C123.617 28.8933 124.017 28.8533 124.391 28.8C124.951 28.72 125.311 28.5067 125.471 28.16C125.657 27.7867 125.764 27.3467 125.791 26.84C125.844 26.3067 125.857 25.7867 125.831 25.28C125.804 24.7733 125.791 24.2667 125.791 23.76C125.791 22.7733 125.791 21.7867 125.791 20.8C125.817 19.7867 125.831 18.7867 125.831 17.8V13.44C125.831 12 125.817 10.56 125.791 9.12C125.791 7.68 125.791 6.24 125.791 4.8C125.791 4.53333 125.777 4.28 125.751 4.04C125.751 3.77333 125.711 3.52 125.631 3.28C125.444 2.74667 125.111 2.42667 124.631 2.32C124.177 2.18667 123.711 2.12 123.231 2.12C123.044 2.12 122.844 2.13333 122.631 2.16C122.444 2.16 122.244 2.16 122.031 2.16C121.844 2.16 121.724 2.06667 121.671 1.88C121.644 1.69333 121.631 1.54667 121.631 1.44C121.631 1.33333 121.644 1.22666 121.671 1.12C121.724 0.986664 121.817 0.919998 121.951 0.919998C122.564 0.919998 123.164 0.946665 123.751 0.999999C124.337 1.02667 124.924 1.04 125.511 1.04C127.084 1.04 128.631 0.999998 130.151 0.919998C131.697 0.813332 133.244 0.706666 134.791 0.599999C135.004 0.573332 135.204 0.559998 135.391 0.559998C135.577 0.559998 135.764 0.559998 135.951 0.559998C137.444 0.559998 138.844 0.759998 140.151 1.16C141.484 1.53333 142.564 2.2 143.391 3.16C144.217 4.12 144.631 5.46666 144.631 7.2C144.631 8.29333 144.337 9.28 143.751 10.16C143.191 11.0133 142.457 11.76 141.551 12.4C140.671 13.0133 139.764 13.5067 138.831 13.88V14.08C140.111 14.2933 141.351 14.68 142.551 15.24C143.751 15.7733 144.737 16.5333 145.511 17.52C146.284 18.48 146.671 19.7067 146.671 21.2ZM170.404 22.48C170.404 24 170.057 25.2667 169.364 26.28C168.671 27.2933 167.751 28.1067 166.604 28.72C165.484 29.3067 164.257 29.7333 162.924 30C161.617 30.24 160.337 30.36 159.084 30.36C157.457 30.36 155.924 30.1067 154.484 29.6C153.897 29.3867 153.324 29.16 152.764 28.92C152.204 28.6533 151.617 28.44 151.004 28.28C150.897 27.4267 150.711 26.4933 150.444 25.48C150.204 24.4667 150.084 23.5467 150.084 22.72C150.084 22.3467 150.137 22.0667 150.244 21.88C150.377 21.6667 150.657 21.56 151.084 21.56C151.457 21.56 151.697 21.6533 151.804 21.84C151.911 22 151.991 22.2267 152.044 22.52C152.151 22.8933 152.244 23.2667 152.324 23.64C152.404 23.9867 152.497 24.3467 152.604 24.72C153.137 26.32 153.924 27.44 154.964 28.08C156.031 28.72 157.391 29.04 159.044 29.04C160.404 29.04 161.617 28.8533 162.684 28.48C163.777 28.08 164.631 27.44 165.244 26.56C165.884 25.68 166.204 24.5067 166.204 23.04C166.204 21.8933 165.817 20.8667 165.044 19.96C164.271 19.0267 163.417 18.2933 162.484 17.76C162.271 17.6267 162.044 17.5067 161.804 17.4C161.564 17.2933 161.324 17.1867 161.084 17.08C160.257 16.6533 159.417 16.2267 158.564 15.8C157.737 15.3733 156.897 14.96 156.044 14.56C155.217 14.1333 154.364 13.6 153.484 12.96C152.631 12.2933 151.897 11.5333 151.284 10.68C150.697 9.82667 150.404 8.89333 150.404 7.88C150.404 6.17333 150.857 4.76 151.764 3.64C152.671 2.52 153.831 1.68 155.244 1.12C156.657 0.559998 158.124 0.279999 159.644 0.279999C160.737 0.279999 161.711 0.413332 162.564 0.679998C163.444 0.946665 164.311 1.22667 165.164 1.52C166.017 1.78667 166.951 1.97333 167.964 2.08C168.044 2.88 168.124 3.68 168.204 4.48C168.284 5.28 168.404 6.08 168.564 6.88C168.591 6.98667 168.604 7.09333 168.604 7.2C168.631 7.30666 168.644 7.41333 168.644 7.52C168.644 7.94667 168.497 8.22667 168.204 8.36C167.937 8.46667 167.631 8.52 167.284 8.52C166.937 8.52 166.751 8.45333 166.724 8.32C166.697 8.18666 166.657 7.98666 166.604 7.72C166.257 5.58667 165.524 3.98667 164.404 2.92C163.284 1.82666 161.604 1.28 159.364 1.28C157.711 1.28 156.417 1.72 155.484 2.6C154.577 3.48 154.124 4.76 154.124 6.44C154.124 7.56 154.417 8.50667 155.004 9.28C155.591 10.0533 156.364 10.7333 157.324 11.32C158.311 11.88 159.377 12.4133 160.524 12.92C161.697 13.4267 162.857 13.9467 164.004 14.48C165.151 15.0133 166.204 15.64 167.164 16.36C168.151 17.0533 168.937 17.8933 169.524 18.88C170.111 19.8667 170.404 21.0667 170.404 22.48ZM201.114 18.12C200.261 15.72 199.407 13.32 198.554 10.92C197.701 8.49333 196.847 6.08 195.994 3.68C195.167 6.08 194.327 8.48 193.474 10.88C192.621 13.28 191.781 15.6933 190.954 18.12H201.114ZM212.394 29.4C212.394 29.56 212.367 29.7067 212.314 29.84C212.287 29.9467 212.194 30 212.034 30C211.847 30 211.381 29.9867 210.634 29.96C209.914 29.9333 209.287 29.92 208.754 29.92C207.927 29.92 207.101 29.92 206.274 29.92C205.474 29.92 204.661 29.9467 203.834 30C203.407 30.0267 202.967 30.04 202.514 30.04C202.087 30.0667 201.661 30.08 201.234 30.08C201.101 30.08 201.007 30.04 200.954 29.96C200.927 29.8533 200.914 29.7467 200.914 29.64L200.954 29.32C200.954 29.24 200.981 29.16 201.034 29.08C201.087 28.9733 201.167 28.92 201.274 28.92H203.234C203.474 28.92 203.741 28.8667 204.034 28.76C204.354 28.6533 204.514 28.4533 204.514 28.16C204.514 28.08 204.421 27.7733 204.234 27.24C204.047 26.68 203.821 26.0133 203.554 25.24C203.287 24.44 203.007 23.64 202.714 22.84C202.421 22.04 202.167 21.3333 201.954 20.72C201.741 20.08 201.594 19.6667 201.514 19.48H190.594C190.514 19.72 190.354 20.16 190.114 20.8C189.874 21.4133 189.607 22.12 189.314 22.92C189.047 23.72 188.767 24.5067 188.474 25.28C188.207 26.0533 187.981 26.72 187.794 27.28C187.634 27.8133 187.554 28.1467 187.554 28.28C187.554 28.6533 187.754 28.8933 188.154 29C188.554 29.1067 188.887 29.16 189.154 29.16C189.421 29.16 189.661 29.16 189.874 29.16C190.087 29.16 190.261 29.1467 190.394 29.12C190.447 29.12 190.541 29.12 190.674 29.12C190.834 29.0933 190.927 29.08 190.954 29.08C191.114 29.08 191.207 29.1733 191.234 29.36C191.287 29.5467 191.301 29.6933 191.274 29.8C191.247 29.9067 191.181 29.9733 191.074 30C190.994 30 190.901 30 190.794 30C190.021 30 189.234 29.9867 188.434 29.96C187.634 29.9333 186.847 29.92 186.074 29.92C185.487 29.92 184.914 29.9333 184.354 29.96C183.794 29.9867 183.221 30 182.634 30C182.394 30 182.274 29.8667 182.274 29.6C182.274 29.2267 182.461 29.04 182.834 29.04C182.967 29.04 183.127 29.0533 183.314 29.08C183.501 29.08 183.701 29.08 183.914 29.08C184.207 29.08 184.501 29 184.794 28.84C185.114 28.6533 185.381 28.3333 185.594 27.88C185.727 27.64 185.994 27 186.394 25.96C186.794 24.92 187.287 23.6267 187.874 22.08C188.461 20.5067 189.074 18.8267 189.714 17.04C190.381 15.2267 191.034 13.4267 191.674 11.64C192.314 9.85333 192.887 8.2 193.394 6.68C193.927 5.16 194.354 3.90666 194.674 2.92C194.994 1.90667 195.154 1.30666 195.154 1.12C195.154 1.06666 195.114 0.999998 195.034 0.919998C194.954 0.813332 194.914 0.746666 194.914 0.719998C194.914 0.613331 194.954 0.546664 195.034 0.519998C195.301 0.466665 195.581 0.426666 195.874 0.4C196.167 0.373332 196.447 0.346665 196.714 0.319998C197.061 0.266666 197.407 0.226665 197.754 0.199997C198.101 0.146665 198.447 0.106665 198.794 0.079999L209.154 28.08C209.261 28.3467 209.461 28.56 209.754 28.72C210.074 28.8533 210.367 28.92 210.634 28.92C210.874 28.92 211.114 28.92 211.354 28.92C211.621 28.8933 211.887 28.88 212.154 28.88C212.261 28.88 212.327 28.9467 212.354 29.08C212.381 29.2133 212.394 29.32 212.394 29.4ZM232.531 7.8C232.531 5.45333 231.917 3.85333 230.691 3C229.491 2.12 227.797 1.68 225.611 1.68H224.291C224.024 1.68 223.691 1.70667 223.291 1.76C222.917 1.78667 222.571 1.88 222.251 2.04C221.957 2.17333 221.811 2.42667 221.811 2.8V13.92C222.104 14.0267 222.437 14.0933 222.811 14.12C223.184 14.1467 223.531 14.16 223.851 14.16C224.917 14.16 225.957 14.0667 226.971 13.88C228.011 13.6933 228.944 13.3733 229.771 12.92C230.624 12.4667 231.291 11.8267 231.771 11C232.277 10.1733 232.531 9.10667 232.531 7.8ZM241.291 29.36C241.291 29.5467 241.104 29.6933 240.731 29.8C240.357 29.9067 239.917 29.9733 239.411 30C238.904 30.0533 238.424 30.08 237.971 30.08C237.544 30.08 237.251 30.08 237.091 30.08C236.024 30.08 235.171 29.9733 234.531 29.76C233.891 29.52 233.264 28.92 232.651 27.96C231.344 25.8533 230.077 23.72 228.851 21.56C227.651 19.4 226.451 17.2267 225.251 15.04L221.811 15.16V27.84C221.811 28.24 221.971 28.5067 222.291 28.64C222.611 28.7733 222.931 28.84 223.251 28.84C223.624 28.84 223.984 28.8267 224.331 28.8C224.677 28.7733 225.024 28.76 225.371 28.76C225.557 28.76 225.664 28.84 225.691 29C225.744 29.16 225.771 29.3067 225.771 29.44C225.771 29.6533 225.704 29.8 225.571 29.88C225.464 29.9333 225.317 29.96 225.131 29.96C223.957 29.96 222.771 29.9467 221.571 29.92C220.371 29.8667 219.184 29.84 218.011 29.84C217.371 29.84 216.731 29.8667 216.091 29.92C215.477 29.9467 214.851 29.96 214.211 29.96C214.051 29.96 213.944 29.8933 213.891 29.76C213.864 29.6 213.851 29.4667 213.851 29.36C213.851 29.0133 213.997 28.84 214.291 28.84C214.531 28.84 214.757 28.8533 214.971 28.88C215.211 28.88 215.437 28.88 215.651 28.88C216.051 28.88 216.477 28.84 216.931 28.76C217.411 28.6533 217.677 28.3467 217.731 27.84C217.784 27.1733 217.797 26.4 217.771 25.52C217.771 24.6133 217.771 23.8267 217.771 23.16C217.771 22.28 217.771 21.4 217.771 20.52C217.771 19.6133 217.771 18.72 217.771 17.84C217.771 16 217.771 14.16 217.771 12.32C217.797 10.48 217.811 8.64 217.811 6.8C217.811 6.13333 217.811 5.46667 217.811 4.8C217.811 4.10667 217.784 3.44 217.731 2.8C217.677 2.26667 217.397 1.97333 216.891 1.92C216.411 1.84 215.971 1.8 215.571 1.8C215.411 1.8 215.251 1.81333 215.091 1.84C214.931 1.84 214.771 1.84 214.611 1.84C214.211 1.84 214.011 1.61333 214.011 1.16C214.011 0.866665 214.144 0.719998 214.411 0.719998C215.317 0.719998 216.211 0.746665 217.091 0.799999C217.997 0.853332 218.904 0.879998 219.811 0.879998C221.064 0.879998 222.304 0.826665 223.531 0.719998C224.757 0.613331 225.984 0.559998 227.211 0.559998C228.224 0.559998 229.291 0.666664 230.411 0.879998C231.557 1.09333 232.624 1.44 233.611 1.92C234.597 2.4 235.397 3.06667 236.011 3.92C236.651 4.74667 236.971 5.8 236.971 7.08C236.971 8.68 236.517 10.0667 235.611 11.24C234.731 12.3867 233.584 13.28 232.171 13.92C231.664 14.16 231.144 14.3467 230.611 14.48C230.077 14.5867 229.544 14.6933 229.011 14.8C230.237 16.88 231.517 18.9333 232.851 20.96C234.211 22.9867 235.584 24.9867 236.971 26.96C237.371 27.52 237.784 27.9733 238.211 28.32C238.664 28.64 239.224 28.8667 239.891 29C240.051 29.0267 240.317 29.04 240.691 29.04C241.091 29.04 241.291 29.1467 241.291 29.36ZM268.452 8.2C268.452 8.57333 268.292 8.76 267.972 8.76C267.865 8.76 267.772 8.76 267.692 8.76C267.612 8.73333 267.545 8.66667 267.492 8.56C267.465 8.50667 267.425 8.38667 267.372 8.2C267.345 7.98667 267.332 7.84 267.332 7.76C267.199 6.96 266.999 6.08 266.732 5.12C266.492 4.13333 266.105 3.33333 265.572 2.72C265.305 2.4 264.852 2.18667 264.212 2.08C263.572 1.97333 262.919 1.92 262.252 1.92C261.585 1.92 261.065 1.92 260.692 1.92C260.292 1.92 259.799 1.92 259.212 1.92C258.652 1.92 258.145 2.02667 257.692 2.24C257.265 2.45333 257.052 2.88 257.052 3.52C257.052 7.54666 257.065 11.5867 257.092 15.64C257.145 19.6667 257.172 23.7067 257.172 27.76C257.172 28.1067 257.319 28.3733 257.612 28.56C257.905 28.72 258.239 28.8267 258.612 28.88C258.985 28.9333 259.292 28.96 259.532 28.96C259.745 28.96 259.932 28.96 260.092 28.96C260.279 28.9333 260.465 28.92 260.652 28.92C260.919 28.92 261.052 29.04 261.052 29.28C261.052 29.3867 261.052 29.5467 261.052 29.76C261.052 29.9467 260.959 30.04 260.772 30.04C259.812 30.04 258.852 30.0267 257.892 30C256.959 29.9467 256.012 29.92 255.052 29.92C253.772 29.92 252.465 29.96 251.132 30.04C250.839 30.04 250.532 30.0533 250.212 30.08C249.892 30.1067 249.585 30.12 249.292 30.12C249.052 30.12 248.932 29.9733 248.932 29.68C248.932 29.36 248.972 29.16 249.052 29.08C249.132 29 249.319 28.96 249.612 28.96C249.665 28.96 249.719 28.9733 249.772 29C249.852 29 249.905 29 249.932 29C250.225 29 250.599 28.9733 251.052 28.92C251.505 28.8667 251.905 28.76 252.252 28.6C252.625 28.4133 252.812 28.1333 252.812 27.76C252.839 25.7067 252.852 23.6533 252.852 21.6C252.879 19.5467 252.892 17.4933 252.892 15.44C252.892 13.4133 252.879 11.4 252.852 9.4C252.825 7.37333 252.812 5.34667 252.812 3.32C252.812 3 252.679 2.70667 252.412 2.44C252.172 2.17333 251.905 2.02666 251.612 2C251.372 1.94667 251.119 1.92 250.852 1.92C250.612 1.92 250.359 1.92 250.092 1.92H246.532C245.572 1.92 244.852 2.16 244.372 2.64C243.919 3.09333 243.599 3.69333 243.412 4.44C243.225 5.16 243.052 5.90667 242.892 6.68C242.892 6.73333 242.852 6.92 242.772 7.24C242.719 7.53333 242.652 7.82667 242.572 8.12C242.519 8.38667 242.479 8.53333 242.452 8.56C242.345 8.69333 242.185 8.76 241.972 8.76C241.679 8.76 241.532 8.61333 241.532 8.32C241.532 8.21333 241.532 8.08 241.532 7.92C241.559 7.73333 241.585 7.52 241.612 7.28C241.665 6.66667 241.705 5.93333 241.732 5.08C241.785 4.2 241.825 3.38667 241.852 2.64C241.879 2.37333 241.892 2.10667 241.892 1.84C241.892 1.57333 241.905 1.33333 241.932 1.12C241.932 0.746664 242.159 0.586665 242.612 0.639999C244.559 0.826665 246.519 0.919998 248.492 0.919998C250.492 0.893331 252.465 0.879998 254.412 0.879998H257.812C258.905 0.879998 259.999 0.879998 261.092 0.879998C262.212 0.853332 263.332 0.826666 264.452 0.799999C264.932 0.773333 265.425 0.76 265.932 0.76C266.465 0.733332 266.985 0.719998 267.492 0.719998C267.839 0.719998 268.039 0.853331 268.092 1.12C268.119 1.2 268.145 1.49333 268.172 2C268.199 2.48 268.225 3.04 268.252 3.68C268.279 4.29333 268.292 4.88 268.292 5.44C268.319 5.97333 268.332 6.34667 268.332 6.56C268.359 6.82667 268.385 7.09333 268.412 7.36C268.439 7.62666 268.452 7.90667 268.452 8.2Z" fill="black"/>
</svg>
